<svg width="131" height="104" viewBox="0 0 131 104" fill="none" xmlns="http://www.w3.org/2000/svg">
<path d="M94.7671 44.0923V45.6848C94.7672 47.6355 95.0593 49.5733 95.6323 51.4238L98.9794 62.2405H105.297V37.2866H101.085C99.4094 37.2866 97.8024 38.0036 96.6175 39.28C95.4327 40.5563 94.7671 42.2872 94.7671 44.0923Z" fill="#231F20"/>
<path d="M123.602 48.8058L120.039 62.2418L103.19 46.3617C102.073 46.3614 101.002 45.8834 100.212 45.0325C99.4227 44.1815 98.979 43.0275 98.979 41.8243C98.9793 40.0193 99.6451 38.2883 100.83 37.012C102.015 35.7357 103.621 35.0184 105.297 35.0181H120.039C120.592 35.0181 121.139 35.1356 121.65 35.3637C122.161 35.5917 122.626 35.926 123.017 36.3473C123.408 36.7687 123.718 37.2688 123.93 37.8193C124.141 38.3698 124.25 38.9603 124.25 39.5561V43.8193C124.25 45.5057 124.033 47.1843 123.602 48.8058Z" fill="#231F20"/>
<path d="M115.826 69.0488H103.19V79.089H115.826V69.0488Z" fill="#E6AF78"/>
<path d="M103.191 73.2139C107.24 74.9958 111.777 74.9958 115.827 73.2139V69.0469H103.191V73.2139Z" fill="#D29B6E"/>
<path d="M125.986 77.6783L115.827 74.5503L109.509 79.0662L103.192 74.5503L93.0316 77.6783C91.7115 78.0844 90.5501 78.9423 89.7233 80.1229C88.8965 81.3035 88.4492 82.7424 88.4492 84.2213V100.808C88.4492 101.409 88.6707 101.985 89.065 102.409C89.4593 102.834 89.9941 103.073 90.5517 103.073H128.458C129.016 103.073 129.551 102.834 129.945 102.409C130.34 101.985 130.561 101.409 130.561 100.808V84.2213C130.561 82.7434 130.115 81.3056 129.29 80.1251C128.464 78.9446 127.305 78.0858 125.986 77.6783Z" fill="#D5DCED"/>
<path d="M111.615 103.076H107.403L108.454 79.0879H110.557L111.615 103.076Z" fill="#AFB9D2"/>
<path d="M109.508 71.3164C106.157 71.3161 102.944 69.8818 100.574 67.3291C98.2047 64.7764 96.8735 61.3144 96.8735 57.7045V55.0465C96.8734 54.4507 96.9823 53.8607 97.1939 53.3103C97.4055 52.7598 97.7156 52.2597 98.1067 51.8383L101.926 47.7244C102.324 47.2898 102.801 46.9473 103.327 46.7181C103.852 46.4889 104.416 46.3775 104.983 46.3913C111.711 46.6178 117.673 48.1738 120.931 51.6006C121.322 52.0224 121.63 52.5236 121.838 53.0753C122.046 53.6269 122.151 54.2177 122.144 54.8132V57.7045C122.144 61.3146 120.813 64.7769 118.443 67.3297C116.074 69.8824 112.86 71.3164 109.508 71.3164Z" fill="#F0C087"/>
<path d="M103.191 55.6093C103.189 54.9901 103.306 54.3775 103.534 53.8089C103.761 53.2402 104.094 52.7277 104.512 52.3032C104.931 51.8787 105.426 51.551 105.966 51.3405C106.507 51.1301 107.082 51.0413 107.655 51.0795C111.907 51.3717 118.216 52.1373 122.087 54.1429C121.972 53.1816 121.565 52.288 120.93 51.6015C117.671 48.1737 111.714 46.6193 104.982 46.3928C104.415 46.3788 103.851 46.4898 103.326 46.719C102.8 46.9482 102.323 47.2905 101.925 47.7254L98.1056 51.8382C97.3162 52.6893 96.8727 53.8432 96.8726 55.0464V57.7055C96.8739 60.6564 97.7654 63.5266 99.413 65.8841C101.06 68.2416 103.375 69.9586 106.007 70.776C104.184 68.3656 103.189 65.351 103.191 62.2419V55.6104V55.6093Z" fill="#E6AF78"/>
<path d="M122.145 90.9822C122.145 89.1769 122.811 87.4457 123.996 86.1693L129.416 80.3291C130.164 81.4678 130.568 82.8274 130.572 84.2224V100.808C130.572 101.409 130.351 101.985 129.957 102.409C129.562 102.834 129.028 103.073 128.47 103.073H122.152V90.9783L122.145 90.9822Z" fill="#C7CFE2"/>
<path d="M110.562 83.6247H108.459C108.181 83.6247 107.913 83.5053 107.716 83.2929C107.519 83.0805 107.408 82.7926 107.408 82.4922V79.0889H111.621V82.4922C111.621 82.6416 111.593 82.7895 111.54 82.9274C111.487 83.0653 111.408 83.1904 111.31 83.2957C111.212 83.4009 111.095 83.4842 110.966 83.5406C110.838 83.5971 110.701 83.6257 110.562 83.6247Z" fill="#959CB5"/>
<path d="M109.509 79.0683L105.94 82.0044C105.795 82.1238 105.628 82.2082 105.451 82.2516C105.273 82.2949 105.089 82.2961 104.911 82.2554C104.732 82.2148 104.564 82.1333 104.418 82.016C104.272 81.8988 104.152 81.7487 104.064 81.5764L100.862 75.2778L102.151 73.16C102.218 73.0494 102.307 72.9562 102.411 72.8863C102.515 72.8165 102.632 72.7719 102.753 72.7558C102.875 72.7398 102.998 72.7522 103.115 72.7929C103.232 72.8336 103.339 72.9015 103.428 72.9914L109.509 79.0683Z" fill="#C7CFE2"/>
<path d="M109.509 79.0681L113.083 82.0042C113.228 82.1236 113.394 82.208 113.572 82.2514C113.75 82.2947 113.934 82.2959 114.112 82.2552C114.29 82.2146 114.458 82.1331 114.604 82.0158C114.751 81.8986 114.871 81.7485 114.958 81.5762L118.161 75.2776L116.872 73.1598C116.805 73.0493 116.716 72.9559 116.612 72.8861C116.508 72.8164 116.391 72.7721 116.269 72.7562C116.148 72.7402 116.024 72.753 115.908 72.7938C115.791 72.8346 115.684 72.9023 115.594 72.9923L109.509 79.0681Z" fill="#C7CFE2"/>
<path d="M37.6958 70.3684C35.8546 64.3486 34.6682 58.1188 34.1605 51.8044C33.5739 43.0563 27.4535 35.9243 19.1802 35.9243C10.9069 35.9243 4.78763 43.0586 4.20103 51.8044C3.69328 58.1188 2.50692 64.3486 0.665723 70.3684C0.470299 70.9091 0.474959 71.51 0.67878 72.0471C0.882601 72.5842 1.27003 73.0164 1.76111 73.2548C5.25303 74.9849 8.95704 76.1672 12.7603 76.7654H25.6002C29.4024 76.1623 33.1058 74.9802 36.5993 73.2548C37.0917 73.0179 37.4803 72.5858 37.6845 72.0482C37.8887 71.5107 37.8927 70.9091 37.6958 70.3684Z" fill="#231F20"/>
<path d="M36.5994 73.2548C37.0917 73.0181 37.4803 72.5862 37.6845 72.0488C37.8887 71.5114 37.8928 70.91 37.6959 70.3695C35.8542 64.3494 34.6678 58.1193 34.1605 51.8044C33.575 43.0563 27.4536 35.9243 19.1813 35.9243H19.1183C12.7709 35.9515 10.5264 45.2782 15.9919 48.7582C16.1662 48.8712 16.3458 48.9743 16.5301 49.0673L21.3164 76.7588H25.6013C29.4029 76.1578 33.1059 74.9778 36.5994 73.2548Z" fill="#231F20"/>
<path d="M34.4142 81.3146L27.599 77.6442C26.8993 77.2673 26.3108 76.6884 25.8995 75.9715C25.4883 75.2547 25.2705 74.4283 25.2705 73.5856V66.7788H12.6345V73.5856C12.6351 74.4283 12.4176 75.2547 12.0062 75.9715C11.5949 76.6883 11.0061 77.267 10.306 77.6431L3.49076 81.3146C2.44144 81.8799 1.55895 82.7488 0.942146 83.8239C0.325346 84.899 -0.00138983 86.1377 -0.00146484 87.4015V100.808C-0.00146484 101.409 0.220045 101.985 0.614338 102.41C1.00863 102.834 1.54341 103.073 2.10102 103.073H35.7966C36.3542 103.073 36.889 102.834 37.2833 102.41C37.6776 101.985 37.8991 101.409 37.8991 100.808V87.4015C37.8997 86.1385 37.574 84.9 36.9586 83.825C36.3431 82.75 35.4621 81.881 34.4142 81.3146Z" fill="#E6AF78"/>
<path d="M18.9505 75.8526C21.1594 75.8505 23.3457 75.3749 25.3821 74.4531C25.3177 74.1684 25.2796 73.8773 25.2685 73.5845V66.7788H12.6326V73.5856C12.6214 73.8795 12.5834 74.1716 12.519 74.4576C14.5564 75.3752 16.7422 75.8492 18.9505 75.8526Z" fill="#D29B6E"/>
<path d="M34.4142 81.3146L29.5585 78.6997C28.4157 80.6113 26.846 82.1833 24.993 83.272C23.1401 84.3607 21.0631 84.9314 18.9525 84.9314C16.8418 84.9314 14.7649 84.3607 12.9119 83.272C11.059 82.1833 9.48924 80.6113 8.34648 78.6997L3.49182 81.3157C2.44238 81.8809 1.55974 82.7494 0.942756 83.8244C0.325777 84.8995 -0.00117159 86.1386 -0.00146484 87.4025V100.809C-0.00146484 101.41 0.220045 101.986 0.614338 102.411C1.00863 102.835 1.54341 103.074 2.10102 103.074H35.7966C36.3542 103.074 36.889 102.835 37.2833 102.411C37.6776 101.986 37.8991 101.41 37.8991 100.809V87.4025C37.8999 86.1393 37.5743 84.9007 36.9589 83.8255C36.3434 82.7503 35.4623 81.881 34.4142 81.3146Z" fill="#D5DCED"/>
<path d="M18.9504 71.3162C15.8824 71.3158 12.9194 70.1131 10.6138 67.9328C8.30814 65.7525 6.81741 62.7436 6.41959 59.4666C6.3568 58.9962 6.43145 58.5163 6.63319 58.0937C6.83493 57.671 7.15375 57.3264 7.54546 57.1078C8.89054 56.3795 10.1434 55.4684 11.2732 54.3967C12.4738 53.2526 13.453 51.8646 14.1546 50.3121C14.356 49.8412 14.7024 49.4598 15.1351 49.2327C15.5678 49.0056 16.06 48.9468 16.5284 49.0663C21.7814 50.5123 26.6668 53.208 30.8253 56.9557C31.0705 57.177 31.2638 57.4573 31.3896 57.7741C31.5155 58.0908 31.5703 58.4355 31.5496 58.7793C31.2984 62.1931 29.862 65.3791 27.5268 67.7027C25.1917 70.0264 22.1294 71.3167 18.9504 71.3162Z" fill="#F0C087"/>
<path d="M30.829 56.9574C26.6707 53.2094 21.7853 50.5136 16.5321 49.068C16.0636 48.9483 15.5711 49.0068 15.1382 49.2339C14.7053 49.461 14.3587 49.8427 14.1573 50.3138C13.6525 51.4159 13.0048 52.4349 12.2336 53.3406V53.3484C11.9346 53.7188 11.6156 54.0699 11.278 54.3995C10.1481 55.4712 8.89533 56.3824 7.55025 57.1106C7.15864 57.3294 6.83989 57.6739 6.63817 58.0965C6.43645 58.5191 6.36175 58.9991 6.42438 59.4695C6.7817 62.3937 8.00969 65.1143 9.92408 67.2229C11.8385 69.3315 14.336 70.7145 17.0419 71.1643C15.6348 70.2375 14.4841 68.921 13.7098 67.3523C12.9354 65.7836 12.5658 64.0196 12.6393 62.2447V59.0094C13.1187 58.6289 13.6002 58.2495 14.0837 57.7841C15.2485 56.6658 16.2623 55.3776 17.0956 53.9566C21.113 55.2985 24.8436 57.4853 28.0716 60.3901C28.4711 60.7672 29.4613 61.7489 30.6198 62.9221C31.1325 61.6051 31.4479 60.209 31.5544 58.7855C31.5755 58.4408 31.5208 58.0956 31.3948 57.778C31.2688 57.4604 31.0749 57.1791 30.829 56.9574Z" fill="#E6AF78"/>
<path d="M1.28314 83.3062C0.453654 84.4825 0.00269138 85.9185 -0.00146484 87.3957V100.802C-0.00146484 101.403 0.220045 101.979 0.614338 102.404C1.00863 102.829 1.54341 103.067 2.10102 103.067H8.41901V91.6363C8.41936 90.9561 8.27781 90.285 8.00487 89.6717C7.73194 89.0583 7.33459 88.5187 6.84215 88.093L1.28314 83.3062Z" fill="#C7CFE2"/>
<path d="M95.5395 78.2185L77.9196 71.3105L65.2836 75.8469L52.6476 71.3105L35.0277 78.2185C33.4026 78.855 31.9987 80.0148 31.0066 81.5406C30.0145 83.0663 29.4824 84.8838 29.4824 86.7466V100.808C29.4824 101.409 29.7039 101.985 30.0982 102.409C30.4925 102.834 31.0273 103.073 31.5849 103.073H98.976C99.5336 103.073 100.068 102.834 100.463 102.409C100.857 101.985 101.078 101.409 101.078 100.808V86.7466C101.079 84.8846 100.548 83.0674 99.5571 81.5417C98.5662 80.016 97.1635 78.856 95.5395 78.2185Z" fill="url(#paint0_linear_1_539)"/>
<path d="M63.0776 80.3906L61.0718 103.076H69.4954L67.4897 80.3906H63.0776Z" fill="#231F20"/>
<path d="M67.4949 83.5067H63.0733C62.6829 83.5067 62.3086 83.3396 62.0326 83.0422C61.7566 82.7449 61.6016 82.3413 61.6016 81.9209V75.8545H68.9718V81.9209C68.9718 82.1295 68.9336 82.3364 68.8593 82.5291C68.785 82.7218 68.6761 82.8972 68.5389 83.0444C68.4017 83.1917 68.2389 83.3079 68.0597 83.3873C67.8805 83.4666 67.6886 83.5075 67.4949 83.5067Z" fill="#231F20"/>
<path d="M98.8187 80.5635C100.274 82.2404 101.084 84.4499 101.085 86.7454V100.808C101.085 101.409 100.864 101.985 100.469 102.409C100.075 102.834 99.5403 103.073 98.9827 103.073H88.4492V95.4853C88.4497 93.0788 89.3371 90.7709 90.9165 89.0689L98.8187 80.5635Z" fill="#A7A9AC"/>
<path d="M88.4491 24.5329V5.52819C88.4493 4.93235 88.3404 4.34247 88.1288 3.79194C87.9172 3.24142 87.6071 2.74138 87.216 2.32C86.825 1.89863 86.3606 1.56437 85.8496 1.33631C85.3386 1.10826 84.791 0.990723 84.2379 0.990723H58.9659C54.4976 0.991023 50.2125 2.90364 47.053 6.30729C43.8936 9.71095 42.1187 14.3267 42.1187 19.1401V24.5329C42.1186 26.9713 42.4835 29.3936 43.1993 31.7068L43.9005 33.9717C44.1151 34.6655 44.2244 35.3919 44.2243 36.1232V37.2877H86.3435V36.1232C86.3434 35.3919 86.4527 34.6655 86.6673 33.9717L87.3684 31.7068C88.0842 29.3936 88.4492 26.9713 88.4491 24.5329Z" fill="#231F20"/>
<path d="M52.6479 10.2057C52.6482 12.65 53.5498 14.9939 55.1543 16.7222C56.7589 18.4504 58.935 19.4211 61.2041 19.4211H62.3877L62.9596 37.2868H86.3435V36.1222C86.3436 35.391 86.4529 34.6646 86.6673 33.9707L87.3685 31.7059C88.0843 29.3927 88.4492 26.9703 88.4492 24.532V5.52722C88.4492 4.32395 88.0055 3.16997 87.2158 2.31903C86.426 1.46808 85.3549 0.990046 84.2379 0.989746H61.2041C58.935 0.989746 56.7589 1.96042 55.1543 3.68867C53.5498 5.41693 52.6482 7.76142 52.6479 10.2057Z" fill="#231F20"/>
<path d="M77.9199 55.437H52.6479V75.8536H77.9199V55.437Z" fill="#E6AF78"/>
<path d="M52.6479 63.1072C56.4848 65.5122 60.8448 66.7793 65.2839 66.7793C69.7231 66.7793 74.083 65.5122 77.9199 63.1072V55.4351H52.6479V63.1072Z" fill="#D29B6E"/>
<path d="M65.2838 75.8529L58.5674 83.0893C58.355 83.319 58.0993 83.4972 57.8175 83.6113C57.5358 83.7254 57.2346 83.7727 56.9343 83.7506C56.634 83.7285 56.3416 83.6373 56.0769 83.483C55.8122 83.3287 55.5814 83.1147 55.4 82.856L48.4365 72.971L50.2573 68.8355C50.3838 68.5471 50.5654 68.2904 50.7903 68.0829C51.0151 67.8754 51.2781 67.7216 51.562 67.6312C51.846 67.5407 52.1444 67.5158 52.4378 67.5582C52.7313 67.6006 53.0132 67.7093 53.2649 67.8772L65.2838 75.8529Z" fill="#A7A9AC"/>
<path d="M65.2837 75.8529L72.0001 83.0893C72.2125 83.319 72.4682 83.4972 72.7499 83.6113C73.0317 83.7254 73.3329 83.7727 73.6331 83.7506C73.9334 83.7285 74.2258 83.6373 74.4906 83.483C74.7553 83.3287 74.9861 83.1147 75.1675 82.856L82.1309 72.971L80.3102 68.8355C80.1837 68.5471 80.002 68.2904 79.7772 68.0829C79.5523 67.8754 79.2894 67.7216 79.0054 67.6312C78.7215 67.5407 78.4231 67.5158 78.1296 67.5582C77.8362 67.6006 77.5543 67.7093 77.3026 67.8772L65.2837 75.8529Z" fill="#A7A9AC"/>
<path d="M65.2837 62.2431C59.6983 62.2428 54.3417 59.8525 50.3923 55.5978C46.4429 51.3432 44.2241 45.5732 44.2241 39.5563V36.8983C44.2243 35.6952 44.6678 34.5413 45.4573 33.6901L47.2023 31.8112C47.9919 30.9598 48.4355 29.8055 48.4355 28.6019V23.1665C48.4325 22.6578 48.5893 22.1629 48.8806 21.7626C49.1719 21.3622 49.5804 21.0803 50.0397 20.9619C55.0204 19.6947 70.5199 16.6936 81.0671 25.0498C81.4024 25.3249 81.6732 25.6808 81.858 26.0888C82.0427 26.4968 82.1362 26.9453 82.131 27.3993V28.6047C82.131 29.8082 82.5745 30.9625 83.3641 31.814L85.1092 33.6924C85.8985 34.5436 86.342 35.6974 86.3422 36.9005V39.5586C86.3422 45.575 84.1236 51.3447 80.1743 55.5989C76.2251 59.8532 70.8688 62.2431 65.2837 62.2431Z" fill="#F0C087"/>
<path d="M81.0682 25.0458C73.6495 19.1685 63.7952 18.9146 56.8601 19.7232C54.5652 19.9887 52.2875 20.4048 50.0397 20.969C49.5805 21.087 49.1721 21.3689 48.8809 21.7691C48.5898 22.1693 48.4331 22.664 48.4365 23.1724V28.6085C48.4365 29.2045 48.3276 29.7946 48.1158 30.3453C47.904 30.8959 47.5936 31.3963 47.2023 31.8177L45.4573 33.6961C44.6677 34.5476 44.2241 35.7019 44.2241 36.9054V39.5634C44.2259 45.1031 46.1101 50.4505 49.521 54.5963C52.9319 58.7422 57.6336 61.3997 62.7386 62.0672C58.9646 57.853 56.857 52.2252 56.8601 46.3696V29.7873C56.86 28.6785 57.2365 27.608 57.9188 26.7777C58.6011 25.9473 59.5419 25.4147 60.5636 25.2803C65.618 24.6008 74.8742 24.1874 82.131 28.6096V27.4036C82.1374 26.9484 82.0446 26.4976 81.86 26.0881C81.6754 25.6786 81.4042 25.3218 81.0682 25.0458Z" fill="#E6AF78"/>
<path d="M31.7489 80.5635C30.2936 82.2404 29.4836 84.4499 29.4824 86.7454V100.808C29.4824 101.409 29.7039 101.985 30.0982 102.409C30.4925 102.834 31.0273 103.073 31.5849 103.073H42.1152V95.4853C42.1147 93.0788 41.2273 90.7709 39.648 89.0689L31.7489 80.5635Z" fill="#A7A9AC"/>
<defs>
<linearGradient id="paint0_linear_1_539" x1="29.4824" y1="87.1917" x2="101.078" y2="87.1917" gradientUnits="userSpaceOnUse">
<stop stop-color="#EF8431"/>
<stop offset="1" stop-color="#E71A86"/>
</linearGradient>
</defs>
</svg>
