<svg width="9" height="17" viewBox="0 0 9 17" fill="none" xmlns="http://www.w3.org/2000/svg">
<path d="M7.79835 0.845543H6.0325C5.50711 0.797843 4.97695 0.854254 4.47578 1.01058C3.97461 1.16691 3.51341 1.41993 3.12155 1.75375C2.47887 2.50768 2.16281 3.46336 2.23704 4.42855V5.55062C2.23718 5.62122 2.22257 5.69141 2.19404 5.75668C2.16552 5.82194 2.12364 5.88102 2.0708 5.93099C2.01797 5.98096 1.95521 6.02064 1.88613 6.04769C1.81704 6.07474 1.74298 6.08871 1.66819 6.08871H1.05804C0.907176 6.08871 0.76249 6.14523 0.655811 6.24593C0.549132 6.34664 0.489197 6.4834 0.489197 6.62582V8.30843C0.489477 8.45077 0.5495 8.58718 0.656118 8.68783C0.762736 8.78848 0.907262 8.84528 1.05804 8.84554H1.66819C1.74289 8.84554 1.81687 8.85957 1.88588 8.88656C1.9549 8.91355 2.0176 8.9529 2.07042 9.00277C2.12325 9.05263 2.16515 9.11193 2.19374 9.17709C2.22232 9.24224 2.23704 9.31213 2.23704 9.38265V16.3084C2.23732 16.4509 2.29748 16.5876 2.40433 16.6883C2.51118 16.789 2.65598 16.8455 2.80694 16.8455H5.17553C5.3264 16.8455 5.47108 16.789 5.57776 16.6883C5.68444 16.5876 5.74437 16.4509 5.74437 16.3084V9.38265C5.74437 9.31213 5.75908 9.24224 5.78767 9.17709C5.81626 9.11193 5.85816 9.05263 5.91098 9.00277C5.9638 8.9529 6.02652 8.91355 6.09553 8.88656C6.16455 8.85957 6.23851 8.84554 6.31321 8.84554H7.51022C7.66547 8.8428 7.81447 8.78739 7.92986 8.68929C8.04525 8.5912 8.11929 8.45733 8.13838 8.31185L8.328 6.6224C8.33735 6.55468 8.33106 6.48594 8.30956 6.42074C8.28805 6.35554 8.25185 6.2957 8.20344 6.24496C8.15503 6.19422 8.09555 6.15377 8.02909 6.12679C7.96264 6.09981 7.89079 6.08698 7.81847 6.08871H6.31321C6.23842 6.08871 6.16436 6.07474 6.09528 6.04769C6.0262 6.02064 5.96344 5.98096 5.9106 5.93099C5.85777 5.88102 5.81589 5.82194 5.78736 5.75668C5.75884 5.69141 5.74423 5.62122 5.74437 5.55062V4.7098C5.74133 4.54896 5.7516 4.38818 5.77509 4.22884C5.79807 4.10979 5.84519 3.99559 5.91386 3.89339C5.99497 3.77777 6.12018 3.69657 6.26343 3.66586C6.47397 3.61868 6.6901 3.59752 6.90642 3.60287H7.79729C7.87208 3.603 7.94616 3.58878 8.0153 3.56185C8.08443 3.53492 8.14727 3.49552 8.20021 3.44564C8.25314 3.39576 8.29513 3.33654 8.32379 3.27132C8.35244 3.20611 8.36719 3.13636 8.36719 3.06576V1.38265C8.36719 1.24023 8.30726 1.10348 8.20058 1.00277C8.0939 0.902062 7.94922 0.845543 7.79835 0.845543Z" fill="url(#paint0_linear_0_675)"/>
<defs>
<linearGradient id="paint0_linear_0_675" x1="0.489197" y1="8.83732" x2="8.36719" y2="8.83732" gradientUnits="userSpaceOnUse">
<stop stop-color="#EF8431"/>
<stop offset="1" stop-color="#E71A86"/>
</linearGradient>
</defs>
</svg>
