<svg width="432" height="356" viewBox="0 0 432 356" fill="none" xmlns="http://www.w3.org/2000/svg">
<path d="M237.95 343.64C345.033 343.64 431.84 338.572 431.84 332.32C431.84 326.068 345.033 321 237.95 321C130.868 321 44.0601 326.068 44.0601 332.32C44.0601 338.572 130.868 343.64 237.95 343.64Z" fill="#F5F5F5"/>
<path d="M304.431 265.123C391.132 214.18 264.736 165.619 245.326 131.618C231.396 107.178 252.494 52.7181 228.859 23.5404C204.013 -7.09057 155.407 -4.99232 126.327 13.6425C82.3804 41.8055 52.1337 162.988 101.508 204.214C138.949 235.472 185.725 185.673 226.136 210.293C251.495 225.772 257.196 292.813 304.431 265.123Z" fill="#707070"/>
<path opacity="0.9" d="M304.431 265.123C391.132 214.18 264.736 165.619 245.326 131.618C231.396 107.178 252.494 52.7181 228.859 23.5404C204.013 -7.09057 155.407 -4.99232 126.327 13.6425C82.3804 41.8055 52.1337 162.988 101.508 204.214C138.949 235.472 185.725 185.673 226.136 210.293C251.495 225.772 257.196 292.813 304.431 265.123Z" fill="white"/>
<path d="M185.371 90.4866C185.645 90.1942 188.456 87.3994 187.413 85.7053C186.529 87.4854 184.832 90.1856 179.635 90.6327C180.214 89.0984 180.513 87.4774 180.519 85.8429C179.674 87.7064 178.397 89.3546 176.789 90.6585C173.566 90.4247 170.385 89.8126 167.314 88.8355C154.214 90.005 153.896 79.9695 153.79 77.7337C153.451 79.2295 153.299 80.76 153.339 82.2913C150.511 77.9229 150.962 71.2927 154.692 70.0544C155.372 55.9514 165.846 54.6959 168.48 54.137C173.236 53.1222 181.535 49.2439 185.645 57.5767C191.417 60.5951 193.6 67.6896 191.134 78.5076C196.084 86.2557 185.893 90.2888 185.371 90.4866Z" fill="#263238"/>
<path d="M166.5 331.536C173.342 331.536 174.243 331.433 178.088 331.304C181.376 331.192 182.163 331.588 184.815 331.536C187.024 331.485 186.936 329.429 186.255 327.064C185.919 325.878 185.371 323.358 184.921 321.44L174.526 322.498C173.707 323.921 172.544 325.128 171.138 326.015C169.732 326.902 168.125 327.442 166.456 327.589C162.77 328.071 163.778 331.536 166.5 331.536Z" fill="#263238"/>
<path d="M160.896 307.449C164.945 302.229 165.97 300.225 168.153 297.216C170.018 294.636 170.381 295.281 172.369 292.735C173.677 291.015 172.467 288.659 170.602 288.135C168.852 287.792 167.139 287.294 165.484 286.647L158.66 291.54C159.906 294.679 160.048 301.859 157.246 306.03C155.222 309.023 159.261 309.539 160.896 307.449Z" fill="#263238"/>
<path d="M135.14 147.888C135.14 147.888 115.482 202.563 112.937 222.573C110.453 242.146 159.173 293.037 159.173 293.037C160.348 293.897 165.228 287.997 165.502 286.45C165.502 286.45 146.162 245.001 132.692 223.201C161.86 181.159 166.925 152.789 166.925 152.789L135.14 147.888Z" fill="url(#paint0_linear_1_1083)"/>
<path d="M144.668 149.358C144.668 149.358 155.655 204.394 159.845 230.914C164.264 258.742 175.631 304.302 174.526 322.498C176.126 323.409 182.013 321.87 185.133 320.907C185.133 320.907 193.22 261.219 179.273 233.666C188.297 169.274 171.574 153.511 171.574 153.511L144.668 149.358Z" fill="url(#paint1_linear_1_1083)"/>
<path d="M144.668 149.358C144.668 149.358 155.655 204.394 159.845 230.915C164.264 258.743 175.631 304.302 174.526 322.498C176.126 323.41 182.013 321.871 185.133 320.908C185.133 320.908 193.22 261.219 179.273 233.667C188.297 169.275 171.574 153.512 171.574 153.512L144.668 149.358Z" fill="url(#paint2_linear_1_1083)"/>
<path d="M173.739 314.543C173.739 316.177 173.624 319.024 173.377 321.199C173.289 321.982 173.598 322.713 174.049 322.842C177.849 323.891 183.356 322.36 185.106 321.818C185.442 321.715 185.69 321.259 185.743 320.675L186.308 314.449C186.388 313.589 186.008 312.823 185.504 312.841L174.526 313.21C174.111 313.228 173.757 313.804 173.739 314.543Z" fill="#263238"/>
<path d="M153.171 287.189C154.232 288.591 156.106 291.084 157.458 292.968C157.909 293.587 158.572 293.914 158.978 293.733C162.028 292.357 165.661 288.573 166.836 287.352C167.066 287.103 167.013 286.596 166.704 286.097L163.363 280.722C162.912 279.991 162.099 279.561 161.683 279.862L152.994 285.71C152.641 285.933 152.712 286.621 153.171 287.189Z" fill="#263238"/>
<path d="M147.638 106.997C147.329 106.559 147.152 106.284 146.931 105.94L146.321 104.959C145.932 104.314 145.57 103.661 145.216 103.007C144.509 101.7 143.849 100.379 143.236 99.043C142.011 96.3589 140.98 93.5946 140.152 90.7704C139.306 87.9334 138.679 85.0388 138.278 82.1108C138.057 80.6403 137.933 79.1612 137.845 77.6735C137.845 76.9254 137.774 76.1858 137.783 75.4377V74.3198C137.783 73.8382 137.783 73.3136 137.862 72.8751C138.034 71.2563 138.357 69.6559 138.826 68.0938C139.241 66.6319 139.71 65.256 140.222 63.9059C141.239 61.2057 142.388 58.6345 143.59 56.1063C146.011 51.0826 148.732 46.2013 151.739 41.4873C152.104 40.9264 152.668 40.5154 153.324 40.3325C153.98 40.1495 154.683 40.2072 155.298 40.4948C155.913 40.7823 156.398 41.2796 156.661 41.8922C156.924 42.5047 156.947 43.19 156.725 43.8178V43.8693C154.877 48.9086 153.056 54.0166 151.377 59.0473C150.546 61.5755 149.759 64.0951 149.114 66.5717C148.787 67.8014 148.487 69.0311 148.23 70.2179C148.019 71.2846 147.892 72.3656 147.85 73.4512C147.85 73.6834 147.85 73.8382 147.85 74.036L147.93 74.9561C147.974 75.5581 148.062 76.1686 148.124 76.7792C148.31 77.9917 148.487 79.2042 148.743 80.4081C149.241 82.8329 149.894 85.2252 150.696 87.5714C151.502 89.9346 152.437 92.254 153.498 94.5197C154.02 95.6634 154.577 96.7814 155.16 97.8735L156.044 99.4816L156.495 100.264L156.901 100.926L157.052 101.167C157.76 102.385 157.959 103.821 157.607 105.178C157.256 106.535 156.381 107.707 155.164 108.453C153.947 109.199 152.482 109.46 151.072 109.183C149.663 108.905 148.417 108.11 147.594 106.963L147.638 106.997Z" fill="#F8B7B0"/>
<path d="M161.639 39.1053C161.516 40.3654 160.922 41.5375 159.968 42.3989L155.593 46.0708C155.295 46.327 154.923 46.4876 154.527 46.5307C154.132 46.5738 153.732 46.4973 153.383 46.3116L150.988 45.1077C150.863 41.7787 151.627 38.4751 153.207 35.5194L154.285 31.4691C154.304 31.3187 154.359 31.1748 154.446 31.0491C154.533 30.9234 154.65 30.8195 154.786 30.7457C154.922 30.672 155.074 30.6305 155.229 30.6247C155.385 30.6189 155.54 30.6489 155.681 30.7123L161.4 33.6103C161.674 33.777 161.891 34.0183 162.025 34.3043C162.158 34.5903 162.202 34.9082 162.151 35.2184L161.639 39.1053Z" fill="#F8B7B0"/>
<path d="M150.696 113.67C165.174 108.898 158.271 98.6127 154.356 88.9212C150.555 86.1178 139.329 97.6496 139.329 97.6496C139.329 97.6496 136.474 112.604 150.696 113.67Z" fill="#263238"/>
<path d="M139.869 105.802C138.783 111.182 137.981 116.613 137.464 122.072C136.581 129.167 135.971 136.175 135.14 147.87L171.609 153.494C172.493 143.382 175.551 132.177 185.751 110.695C186.328 109.579 186.64 108.351 186.666 107.102C186.692 105.852 186.431 104.613 185.902 103.475C185.372 102.337 184.588 101.328 183.606 100.522C182.624 99.717 181.47 99.1351 180.227 98.8195C178.804 98.4584 177.293 98.1058 175.728 97.7876C170.28 96.5466 164.747 95.6845 159.173 95.2078C157.343 95.096 155.443 95.0272 153.622 94.9928C150.397 94.9628 147.261 96.0247 144.752 97.9967C142.243 99.9687 140.516 102.728 139.869 105.802Z" fill="#263238"/>
<path d="M177.531 79.4883C175.242 84.4501 171.927 93.6687 174.827 97.6674C174.827 97.6674 169.903 96.1453 158.139 100.944C155.735 96.1367 158.271 95.1134 158.271 95.1134C164.538 94.6662 165.413 90.4009 165.342 86.2646L177.531 79.4883Z" fill="#F8B7B0"/>
<path d="M160.596 100.015C164.052 101.047 164.308 106.404 164.308 106.404C164.308 106.404 173.739 101.872 177.089 98.1743C176.119 97.4247 175.19 96.6268 174.305 95.7837C174.305 95.7837 162.982 98.2947 160.596 100.015Z" fill="white"/>
<path d="M157.317 98.9223C157.317 98.9223 154.135 99.2577 152.358 103.222C152.782 95.5341 156.618 94.8118 156.618 94.8118C157.668 94.4182 158.83 94.4182 159.88 94.8118C159.022 95.0917 158.294 95.6581 157.825 96.4106C157.356 97.1631 157.176 98.0529 157.317 98.9223Z" fill="white"/>
<path opacity="0.2" d="M172.555 82.2485L165.342 86.2559C165.376 87.2277 165.32 88.2004 165.174 89.1624C167.517 89.1624 171.22 87.2792 172.016 85.0347C172.369 84.1457 172.551 83.2015 172.555 82.2485Z" fill="black"/>
<path d="M183.771 69.779C180.793 77.9054 179.706 81.3882 174.146 84.6473C165.775 89.549 156.15 84.7935 156.574 76.1081C156.945 68.2999 161.754 56.3296 171.07 54.9279C180.298 53.5778 186.75 61.6612 183.771 69.779Z" fill="#F8B7B0"/>
<path d="M181.456 58.3853C176.948 61.0167 177.098 75.1713 184.594 74.1394C191.541 65.9528 186.291 55.8829 181.456 58.3853Z" fill="#263238"/>
<path d="M185.654 57.499C180.448 65.4535 160.773 58.5654 156.132 54.773C159.473 55.7448 165.104 54.8934 169.17 53.9131C173.235 52.9328 184.505 47.7731 185.654 57.499Z" fill="#263238"/>
<path d="M159.473 53.2169C165.081 54.5985 170.972 54.4468 176.497 52.7784L182.446 52.3054C178.106 49.5192 166.332 53.1052 159.473 53.2169Z" fill="#263238"/>
<path d="M172.555 69.4869C172.334 70.1749 171.786 70.6479 171.326 70.5447C170.867 70.4415 170.663 69.7965 170.884 69.1C171.105 68.4034 171.662 67.9304 172.122 68.0422C172.581 68.154 172.776 68.7904 172.555 69.4869Z" fill="#263238"/>
<path d="M163.654 67.1652C163.433 67.8617 162.876 68.3347 162.417 68.2315C161.957 68.1283 161.763 67.4747 161.984 66.7868C162.205 66.0988 162.753 65.6173 163.212 65.7205C163.672 65.8237 163.866 66.4772 163.654 67.1652Z" fill="#263238"/>
<path d="M163.407 65.8062L161.869 64.9463C161.869 64.9463 162.319 66.477 163.407 65.8062Z" fill="#263238"/>
<path d="M165.908 69.3149C164.773 70.7503 163.458 72.0416 161.993 73.1589C162.62 74.2166 164.388 74.2166 164.388 74.2166L165.908 69.3149Z" fill="#A02724"/>
<path d="M167.596 77.6563C167.189 77.637 166.783 77.5823 166.385 77.4929C166.358 77.4861 166.332 77.4739 166.31 77.4569C166.288 77.4399 166.27 77.4186 166.256 77.3943C166.243 77.37 166.235 77.3433 166.233 77.3159C166.231 77.2884 166.235 77.2609 166.244 77.2349C166.261 77.1817 166.297 77.1363 166.346 77.1077C166.395 77.079 166.453 77.0692 166.509 77.0801C167.41 77.2896 168.349 77.2994 169.254 77.1089C170.16 76.9184 171.01 76.5324 171.742 75.9794C171.783 75.94 171.839 75.918 171.897 75.918C171.954 75.918 172.01 75.94 172.051 75.9794C172.071 75.9986 172.087 76.0214 172.097 76.0465C172.108 76.0715 172.114 76.0984 172.114 76.1256C172.114 76.1528 172.108 76.1797 172.097 76.2048C172.087 76.2298 172.071 76.2526 172.051 76.2718C170.792 77.2509 169.206 77.7439 167.596 77.6563Z" fill="#263238"/>
<path d="M184.399 77.6561C183.814 78.363 183.091 78.9503 182.272 79.3842C181.453 79.8181 180.554 80.09 179.626 80.1844C177.222 80.3822 176.621 78.0173 177.779 75.8847C178.831 73.9756 181.314 71.585 183.506 72.3589C185.698 73.1329 185.902 75.8245 184.399 77.6561Z" fill="#F8B7B0"/>
<path d="M175.967 64.4045C175.911 64.3975 175.857 64.3783 175.81 64.3486C175.763 64.3188 175.723 64.2792 175.693 64.2326C175.414 63.7908 175.024 63.4251 174.56 63.1695C174.097 62.9139 173.574 62.7766 173.041 62.7707C172.986 62.7718 172.931 62.7622 172.88 62.7424C172.828 62.7226 172.781 62.693 172.742 62.6554C172.702 62.6177 172.671 62.5728 172.649 62.5232C172.628 62.4736 172.617 62.4203 172.617 62.3665C172.623 62.2531 172.673 62.1461 172.757 62.0665C172.84 61.987 172.951 61.9406 173.068 61.9365C173.736 61.9403 174.391 62.1088 174.974 62.4261C175.557 62.7434 176.047 63.1992 176.4 63.751C176.457 63.8487 176.472 63.9637 176.444 64.0725C176.417 64.1812 176.347 64.2754 176.25 64.3358C176.166 64.3879 176.066 64.4121 175.967 64.4045Z" fill="#263238"/>
<path d="M161.86 62.6074C161.807 62.6077 161.754 62.5972 161.705 62.5764C161.657 62.5557 161.613 62.5252 161.577 62.487C161.497 62.4081 161.452 62.3015 161.452 62.1904C161.452 62.0792 161.497 61.9726 161.577 61.8937C162.071 61.4112 162.672 61.0456 163.334 60.8249C163.996 60.6043 164.701 60.5345 165.395 60.621C165.45 60.6318 165.501 60.6535 165.546 60.6846C165.591 60.7157 165.628 60.7556 165.657 60.8017C165.685 60.8478 165.703 60.8991 165.71 60.9524C165.717 61.0057 165.712 61.0597 165.696 61.1111C165.665 61.2198 165.593 61.3134 165.495 61.3737C165.397 61.4341 165.28 61.457 165.166 61.4379C164.615 61.3768 164.057 61.4387 163.535 61.619C163.013 61.7994 162.539 62.0933 162.152 62.4784C162.072 62.5523 161.969 62.5977 161.86 62.6074Z" fill="#263238"/>
<path d="M172.343 68.1285L170.805 67.2686C170.805 67.2686 171.229 68.7562 172.343 68.1285Z" fill="#263238"/>
<path d="M161.833 151.689L163.654 149.685C163.993 149.312 164.418 149.023 164.895 148.842C165.371 148.661 165.885 148.593 166.394 148.644L171.211 149.143C172.16 149.237 173.071 149.552 173.868 150.061C174.665 150.57 175.324 151.258 175.79 152.067L176.382 153.082C173.589 156.616 167.897 158.43 167.897 158.43L166.332 159.127C166.018 159.273 165.677 159.357 165.329 159.375C164.981 159.392 164.633 159.343 164.304 159.229C163.976 159.116 163.674 158.941 163.415 158.714C163.157 158.487 162.946 158.212 162.797 157.906L161.338 154.913C161.094 154.386 161.01 153.802 161.098 153.23C161.186 152.658 161.441 152.123 161.833 151.689Z" fill="#F8B7B0"/>
<path d="M189.137 109.947C189.437 110.635 189.667 111.194 189.915 111.804C190.162 112.415 190.365 113.008 190.586 113.61C191.02 114.814 191.47 116.018 191.815 117.231C192.566 119.656 193.22 122.124 193.751 124.626C194.297 127.154 194.698 129.709 194.953 132.28C195.213 134.92 195.278 137.576 195.147 140.225V140.501C195.133 140.756 195.092 141.01 195.024 141.257C194.568 142.846 193.752 144.315 192.637 145.557C191.763 146.543 190.779 147.431 189.703 148.206C187.848 149.518 185.846 150.623 183.736 151.499C181.782 152.329 179.775 153.033 177.726 153.606C175.695 154.186 173.629 154.64 171.539 154.965C170.884 155.072 170.212 154.948 169.642 154.617C169.073 154.285 168.643 153.767 168.431 153.156C168.218 152.544 168.236 151.879 168.481 151.279C168.727 150.679 169.184 150.184 169.771 149.882L169.895 149.814C171.53 148.954 173.28 148.094 174.915 147.165C176.55 146.236 178.168 145.308 179.662 144.31C181.077 143.402 182.402 142.369 183.621 141.223C184.093 140.78 184.509 140.283 184.859 139.744C185.124 139.305 185.195 138.996 185.142 138.961L185.009 139.993C184.899 137.83 184.669 135.674 184.32 133.535C183.931 131.351 183.436 129.167 182.905 126.974C182.375 124.781 181.694 122.597 180.996 120.421C180.651 119.337 180.289 118.254 179.9 117.179L179.317 115.588L178.76 114.083L178.68 113.877C178.145 112.528 178.182 111.027 178.784 109.705C179.385 108.382 180.502 107.346 181.889 106.825C183.276 106.304 184.818 106.34 186.177 106.926C187.537 107.511 188.601 108.598 189.137 109.947Z" fill="#F8B7B0"/>
<path d="M179.573 98.6733C185.566 99.6881 187.961 102.973 192.646 114.797C190.33 119.14 179.812 123.139 179.812 123.139C179.812 123.139 174.446 106.404 179.573 98.6733Z" fill="#263238"/>
<path d="M311.9 316.29L320.342 314.037L315.728 294.774L307.286 297.027L311.9 316.29Z" fill="#FFCECE"/>
<path d="M319.184 310.614L309.921 312.928C309.754 312.968 309.608 313.064 309.507 313.2C309.407 313.335 309.359 313.501 309.373 313.667L310.009 321.338C310.026 321.527 310.085 321.711 310.182 321.877C310.28 322.042 310.413 322.184 310.573 322.294C310.733 322.404 310.916 322.478 311.109 322.512C311.301 322.546 311.499 322.538 311.688 322.49C315.012 321.63 319.785 320.203 323.983 319.153C328.898 317.924 328.456 318.233 334.21 316.797C337.692 315.937 337.578 312.3 336.022 312.36C328.951 312.618 328.244 312.713 321.429 310.743C320.706 310.504 319.93 310.46 319.184 310.614Z" fill="#263238"/>
<path opacity="0.2" d="M315.728 294.774L318.105 304.706L309.664 306.959L307.286 297.027L315.728 294.774Z" fill="black"/>
<path d="M320.837 311.001C320.798 310.999 320.762 310.985 320.732 310.962C320.702 310.939 320.68 310.908 320.669 310.872C320.654 310.833 320.651 310.79 320.663 310.75C320.674 310.71 320.697 310.675 320.731 310.648C321.075 310.356 324.134 307.793 325.283 308.068C325.391 308.097 325.49 308.154 325.567 308.232C325.645 308.311 325.7 308.409 325.725 308.516C325.782 308.693 325.797 308.88 325.768 309.064C325.739 309.247 325.667 309.422 325.557 309.573C324.788 310.614 322.286 310.898 320.863 310.966L320.837 311.001ZM325.079 308.481C324.399 308.43 322.693 309.582 321.473 310.554C323.418 310.39 324.796 309.96 325.221 309.376C325.294 309.276 325.342 309.161 325.362 309.04C325.382 308.92 325.373 308.796 325.336 308.679C325.326 308.636 325.304 308.597 325.273 308.565C325.242 308.533 325.202 308.51 325.159 308.498L325.079 308.481Z" fill="url(#paint3_linear_1_1083)"/>
<path d="M320.837 311.001C320.806 310.984 320.78 310.961 320.76 310.932C320.74 310.904 320.727 310.872 320.722 310.838C320.722 310.743 320.466 308.43 321.358 307.286C321.609 306.956 321.984 306.737 322.401 306.676C322.967 306.59 323.188 306.822 323.285 307.037C323.639 307.897 321.995 310.262 321.058 310.967C321.033 311 320.996 311.022 320.955 311.028C320.913 311.034 320.871 311.025 320.837 311.001ZM322.605 307.054H322.392C322.083 307.104 321.806 307.271 321.623 307.518C321.148 308.394 320.948 309.387 321.049 310.373C321.933 309.513 323.046 307.725 322.817 307.183C322.843 307.157 322.817 307.071 322.605 307.054Z" fill="url(#paint4_linear_1_1083)"/>
<path d="M283.086 219.641C264.011 178.923 250.338 162.283 250.028 140.338L280.416 134.929C280.416 134.929 304.052 190.747 306.544 216.287C309.134 242.842 319.387 298.532 319.387 298.532L305.528 301.112C305.528 301.112 283.766 249.713 283.086 219.641Z" fill="#263238"/>
<path opacity="0.2" d="M252.901 157.064C256.392 167.993 262.871 179.551 271.277 195.761C269.792 176.748 263.49 154.578 252.901 157.064Z" fill="black"/>
<path d="M320.616 294.584L320.951 300.561L305.961 304.491L303.972 299.245L320.616 294.584Z" fill="#263238"/>
<path d="M238.67 304.638L237.981 324.416L247.704 324.279L248.393 304.5L238.67 304.638Z" fill="#FFCECE"/>
<path d="M247.474 321.699L237.919 321.845C237.752 321.846 237.59 321.907 237.467 322.017C237.343 322.126 237.265 322.276 237.247 322.438L236.416 330.049C236.4 330.241 236.426 330.433 236.49 330.615C236.555 330.797 236.658 330.963 236.793 331.104C236.928 331.245 237.091 331.357 237.273 331.433C237.455 331.509 237.65 331.547 237.848 331.545C241.295 331.433 242.374 331.158 246.687 331.098C251.752 331.021 249.418 331.218 255.358 331.098C258.947 331.038 259.521 327.503 258.01 327.185C253.14 326.196 251.822 324.313 249.675 322.301C249.045 321.837 248.259 321.622 247.474 321.699Z" fill="#263238"/>
<path opacity="0.2" d="M238.67 304.637L238.308 314.836L248.039 314.699L248.393 304.508L238.67 304.637Z" fill="black"/>
<path d="M245.706 322.344C245.668 322.346 245.63 322.337 245.597 322.319C245.564 322.301 245.537 322.273 245.52 322.24C245.495 322.207 245.481 322.166 245.481 322.124C245.481 322.083 245.495 322.042 245.52 322.008C245.821 321.681 248.463 318.835 249.674 319.007C249.788 319.02 249.895 319.062 249.987 319.129C250.078 319.195 250.15 319.284 250.196 319.385C250.283 319.547 250.329 319.727 250.329 319.91C250.329 320.093 250.283 320.273 250.196 320.434C249.604 321.544 247.129 322.111 245.715 322.344H245.706ZM249.56 319.403C248.861 319.403 247.341 320.753 246.28 321.836C248.198 321.449 249.515 320.873 249.816 320.254C249.875 320.147 249.905 320.027 249.905 319.906C249.905 319.784 249.875 319.665 249.816 319.557C249.8 319.516 249.772 319.479 249.737 319.452C249.701 319.425 249.658 319.408 249.613 319.403H249.56Z" fill="url(#paint5_linear_1_1083)"/>
<path d="M245.706 322.344C245.67 322.334 245.637 322.316 245.611 322.29C245.584 322.264 245.565 322.233 245.556 322.197C245.556 322.103 244.902 319.876 245.618 318.663C245.714 318.484 245.848 318.326 246.011 318.2C246.174 318.075 246.362 317.983 246.563 317.932C247.12 317.786 247.376 317.992 247.491 318.19C247.995 319.05 246.722 321.484 245.9 322.283C245.878 322.312 245.848 322.333 245.813 322.344C245.778 322.354 245.741 322.354 245.706 322.344ZM246.828 318.293C246.758 318.284 246.687 318.284 246.616 318.293C246.469 318.329 246.331 318.395 246.212 318.487C246.093 318.579 245.996 318.695 245.927 318.826C245.587 319.744 245.547 320.741 245.812 321.681C246.59 320.718 247.385 318.869 247.076 318.362C247.094 318.362 247.049 318.285 246.864 318.293H246.828Z" fill="url(#paint6_linear_1_1083)"/>
<path d="M238.794 226.34C236.036 195.846 228.373 165.964 230.927 143.485L262.747 138.325C262.747 138.325 267.326 201.35 263.835 227.329C260.211 254.339 250.779 308.602 250.779 308.602L236.637 308.791C236.637 308.791 235.046 256.18 238.794 226.34Z" fill="#263238"/>
<path d="M252.795 305.515L251.876 311.397L236.027 311.672L235.135 306.108L252.795 305.515Z" fill="#263238"/>
<path d="M259.106 57.8785C261.757 58.6696 264.648 59.5037 267.432 60.2777C270.216 61.0516 273.045 61.7826 275.829 62.4705C278.613 63.1585 281.406 63.7432 284.12 64.1904C285.472 64.4226 286.816 64.586 288.106 64.7322C289.279 64.8632 290.461 64.9149 291.642 64.887L288.866 65.8673C288.641 66.0334 288.472 66.2609 288.38 66.5208C288.38 66.6412 288.451 66.5208 288.521 66.2715C288.673 65.3543 288.673 64.4196 288.521 63.5025C288.139 60.9261 287.512 58.3899 286.648 55.9264C285.764 53.295 284.747 50.6378 283.66 47.9892C282.573 45.3406 281.371 42.6489 280.222 40.0605L280.178 39.9659C279.863 39.2486 279.827 38.4449 280.075 37.7035C280.324 36.9622 280.84 36.3334 281.528 35.9337C282.216 35.5339 283.029 35.3902 283.818 35.5292C284.606 35.6682 285.317 36.0804 285.817 36.6896C287.753 39.098 289.561 41.6008 291.235 44.1882C292.94 46.7957 294.498 49.4912 295.902 52.2631C296.609 53.6734 297.263 55.1353 297.882 56.6573C298.532 58.2357 299.058 59.86 299.455 61.516C299.961 63.4823 300.155 65.5123 300.03 67.5356C299.925 68.9148 299.572 70.2654 298.987 71.5257C298.236 73.1182 297.069 74.4911 295.601 75.5072C294.847 76.0263 293.973 76.3571 293.056 76.4703H292.817C289.34 76.8319 285.831 76.803 282.361 76.3843C279.117 76.049 275.979 75.5244 272.894 74.9138C269.809 74.3033 266.787 73.5809 263.781 72.7898C260.776 71.9986 257.868 71.1301 254.819 70.081C253.335 69.416 252.155 68.2426 251.504 66.7849C250.853 65.3272 250.776 63.6872 251.289 62.1781C251.801 60.669 252.867 59.3964 254.283 58.6033C255.699 57.8102 257.365 57.5522 258.964 57.8785H259.106Z" fill="#FFCECE"/>
<path d="M281.76 42.124L274.75 36.2334L283.916 30.9878C283.916 30.9878 290.316 37.0074 286.992 40.7911L281.76 42.124Z" fill="#FFCECE"/>
<path d="M273.336 29.7067L277.385 27.23C277.882 26.922 278.473 26.7913 279.058 26.8603C279.644 26.9293 280.186 27.1937 280.593 27.6084L283.917 30.988L274.751 36.2336L272.603 33.2238C272.407 32.9479 272.271 32.6366 272.203 32.3084C272.134 31.9803 272.133 31.642 272.202 31.3137C272.27 30.9854 272.406 30.674 272.601 30.3979C272.796 30.1218 273.046 29.8867 273.336 29.7067Z" fill="#FFCECE"/>
<path d="M253.387 55.1696C261.961 53.9141 275.935 61.6793 275.935 61.6793L272.877 80.1766C272.877 80.1766 266.38 79.695 257.851 75.5071C255.261 74.2172 243.249 56.6659 253.387 55.1696Z" fill="url(#paint7_linear_1_1083)"/>
<path d="M254.377 55.0749C244.919 55.9348 230.441 59.2026 220.904 62.9519C218.427 63.9139 216.33 65.6189 214.917 67.8194C213.504 70.0199 212.848 72.6013 213.046 75.1888C214.018 87.5203 221.213 107.204 230.37 144.078C235.126 145.033 248.649 143.545 259.327 141.679C260.485 141.481 263.057 138.515 263.057 138.515C263.057 138.515 265.876 140.424 267.343 140.097C274.415 138.532 279.921 136.743 281.088 135.247C277.482 126.871 274.441 102.285 271.604 87.5719C270.914 81.733 269.102 71.0181 266.133 65.0932C263.322 59.4864 260.732 54.4385 254.377 55.0749Z" fill="url(#paint8_linear_1_1083)"/>
<path d="M231.148 43.5601C232.28 49.8634 233.296 57.2589 230.026 62.0487C233.022 65.7207 239.51 68.2833 245.83 69.3152C249.409 64.4136 248.552 60.0795 246.563 57.6888C242.736 55.4702 242.975 51.6177 242.895 48.9605L231.148 43.5601Z" fill="#FFCECE"/>
<path d="M245.83 69.315C246.547 68.1977 246.966 66.9237 247.049 65.6087C247.049 63.691 250.585 64.6885 250.585 64.6885C249.433 66.601 247.795 68.194 245.83 69.315Z" fill="#263238"/>
<path d="M245.83 69.3152C245.578 68.6463 245.122 68.0681 244.524 67.6578C243.925 67.2475 243.212 67.0247 242.48 67.0192C240.752 66.9326 239.027 67.2266 237.433 67.8791C237.433 67.8791 242.462 69.6678 245.83 69.3152Z" fill="#263238"/>
<path opacity="0.2" d="M233.95 45.9424C233.871 45.5468 233.809 45.1426 233.747 44.7471L242.895 48.9694C242.806 50.8153 243.058 52.6617 243.638 54.4214C239.386 53.2089 234.719 49.7433 233.95 45.9424Z" fill="black"/>
<path d="M242.038 19.4645C247.341 18.6046 251.045 24.6242 246.457 33.1462C243.311 31.6843 240.703 26.774 240.703 26.774L242.038 19.4645Z" fill="#E0E0E0"/>
<path d="M225.969 35.5197C229.61 43.1903 231.343 47.8684 237.035 50.3192C245.6 54.0084 254.112 46.5269 252.892 37.9275C251.787 30.1881 246.015 18.9401 236.867 18.8885C234.841 18.8746 232.845 19.3613 231.065 20.3029C229.285 21.2446 227.78 22.6104 226.691 24.2724C225.602 25.9344 224.965 27.8381 224.838 29.8053C224.712 31.7725 225.101 33.7387 225.969 35.5197Z" fill="#FFCECE"/>
<path d="M249.904 39.5356C249.904 39.5356 247.191 39.5356 240.075 41.1179C241.534 43.0356 243.611 44.4029 247.235 43.5516C247.698 43.4909 248.142 43.3335 248.536 43.0901C248.931 42.8467 249.266 42.523 249.52 42.1414C249.773 41.7598 249.939 41.3293 250.006 40.8795C250.072 40.4297 250.037 39.9712 249.904 39.5356Z" fill="#263238"/>
<path d="M245.052 42.2788C246.457 41.8856 247.953 41.9307 249.33 42.4078C248.784 43.0037 248.05 43.4061 247.244 43.5515C245.843 43.9492 244.348 43.9041 242.975 43.4225C243.514 42.824 244.246 42.4209 245.052 42.2788Z" fill="#FF5652"/>
<path d="M249.56 39.5444C249.57 39.8125 249.5 40.0777 249.357 40.3071C249.214 40.5365 249.005 40.7198 248.755 40.8343C246.631 41.3024 244.469 41.5901 242.294 41.6943C241.944 41.7412 241.587 41.7047 241.254 41.5879C240.922 41.4711 240.624 41.2774 240.385 41.0235C243.399 40.2985 246.466 39.8039 249.56 39.5444Z" fill="white"/>
<path opacity="0.2" d="M239.519 39.957C239.519 39.957 237.503 40.2236 238.228 41.6769C238.29 40.9632 239.519 39.957 239.519 39.957Z" fill="black"/>
<path d="M230.521 40.6794L234.118 40.0345C234.118 40.0345 231.634 33.2582 228.647 31.4351C230.415 29.7754 233.066 26.4045 233.897 24.0654C234.628 22.1453 234.755 20.0569 234.263 18.0662C233.77 16.0755 232.68 14.2723 231.131 12.8862C230.786 14.6578 230.041 16.3331 228.952 17.7917C227.862 19.2503 226.454 20.456 224.828 21.3222C221.355 23.1539 217.651 27.746 222.018 29.5604C217.315 32.3036 219.693 38.0996 230.521 40.6794Z" fill="#E0E0E0"/>
<path d="M232.748 25.9658C239.819 26.1378 244.707 19.0863 238.582 10.5815C237.795 15.3972 230.963 18.321 230.963 18.321L232.748 25.9658Z" fill="#E0E0E0"/>
<path d="M239.006 23.1968C243.558 24.2631 247.147 19.241 243.735 11.5962C242.922 15.3713 238.343 16.7558 238.343 16.7558L239.006 23.1968Z" fill="#E0E0E0"/>
<path opacity="0.2" d="M236.602 33.7996C235.36 33.6024 234.088 33.8931 233.066 34.6079C234.287 34.5624 235.488 34.2879 236.602 33.7996Z" fill="black"/>
<path opacity="0.2" d="M236.743 34.5908C236.177 34.6185 235.623 34.7659 235.121 35.0228C234.619 35.2797 234.18 35.64 233.835 36.0785C234.902 35.7897 235.894 35.2825 236.743 34.5908Z" fill="black"/>
<path opacity="0.2" d="M247.889 29.5003C247.889 29.5003 248.543 28.3136 249.294 28.4597C248.937 28.9297 248.45 29.2906 247.889 29.5003Z" fill="black"/>
<path opacity="0.2" d="M248.048 30.0592C248.048 30.0592 248.746 29.1993 249.409 29.7324C249.017 30.0111 248.528 30.1285 248.048 30.0592Z" fill="black"/>
<path d="M225.217 42.5025C225.821 43.3679 226.595 44.1082 227.495 44.6809C228.395 45.2536 229.402 45.6472 230.459 45.8391C233.305 46.3465 234.498 43.8096 233.508 41.3244C232.624 39.0886 230.061 36.1648 227.321 36.7496C224.581 37.3343 223.741 40.3355 225.217 42.5025Z" fill="#FFCECE"/>
<path d="M237.919 33.8001C238.175 34.4364 238.732 34.8234 239.165 34.66C239.598 34.4966 239.731 33.8001 239.475 33.1981C239.218 32.5961 238.661 32.1748 238.228 32.3382C237.795 32.5016 237.663 33.1465 237.919 33.8001Z" fill="#263238"/>
<path d="M246.113 30.6179C246.369 31.2543 246.926 31.6413 247.359 31.4779C247.792 31.3145 247.925 30.6179 247.668 30.016C247.412 29.414 246.855 28.9926 246.431 29.156C246.006 29.3194 245.856 29.973 246.113 30.6179Z" fill="#263238"/>
<path d="M243.408 31.6929C243.408 31.6929 246.501 34.6941 248.897 35.7518C248.225 37.2825 246.068 37.6522 246.068 37.6522L243.408 31.6929Z" fill="#FF5652"/>
<path d="M234.631 30.6355C234.562 30.6572 234.487 30.6572 234.419 30.6355C234.366 30.6217 234.316 30.5976 234.273 30.5648C234.23 30.532 234.195 30.4911 234.168 30.4446C234.142 30.398 234.125 30.3468 234.12 30.2939C234.114 30.241 234.12 30.1875 234.136 30.1367C234.298 29.5132 234.612 28.9365 235.05 28.4548C235.488 27.9731 236.038 27.6004 236.655 27.3677C236.706 27.3517 236.76 27.3457 236.813 27.35C236.867 27.3543 236.919 27.3689 236.966 27.3929C237.014 27.4168 237.056 27.4498 237.091 27.4897C237.125 27.5297 237.151 27.5759 237.167 27.6257C237.201 27.7272 237.192 27.8375 237.142 27.9325C237.093 28.0275 237.006 28.0996 236.902 28.1331C236.417 28.3282 235.986 28.6314 235.644 29.0182C235.302 29.4051 235.057 29.8648 234.931 30.3603C234.909 30.4269 234.869 30.4869 234.817 30.535C234.764 30.583 234.7 30.6176 234.631 30.6355Z" fill="#263238"/>
<path d="M247.35 25.7679C247.288 25.7975 247.22 25.8129 247.151 25.8129C247.082 25.8129 247.014 25.7975 246.952 25.7679C246.503 25.5114 245.997 25.3641 245.477 25.3387C244.957 25.3132 244.438 25.4103 243.965 25.6217C243.868 25.6708 243.756 25.6812 243.652 25.6506C243.548 25.6201 243.46 25.551 243.408 25.4583C243.357 25.3633 243.346 25.2528 243.377 25.1501C243.409 25.0474 243.48 24.9605 243.576 24.908C244.17 24.6348 244.824 24.5055 245.481 24.531C246.138 24.5564 246.779 24.7359 247.35 25.0541C247.398 25.0785 247.441 25.112 247.475 25.1526C247.51 25.1932 247.535 25.2402 247.551 25.2906C247.567 25.3411 247.572 25.3941 247.566 25.4465C247.56 25.499 247.544 25.5497 247.518 25.5959C247.476 25.665 247.419 25.7238 247.35 25.7679Z" fill="#263238"/>
<path d="M225.014 76.3321C224.059 79.0237 222.999 81.7411 222.009 84.4499L218.951 92.5592L215.901 100.651C214.92 103.351 213.912 106.034 212.967 108.709L212.922 105.269C213.845 108.159 215 110.974 216.378 113.688C217.793 116.594 219.313 119.535 220.904 122.459C222.495 125.383 224.112 128.315 225.748 131.248L230.68 140.071C231.076 140.767 231.194 141.581 231.01 142.356C230.825 143.131 230.352 143.812 229.682 144.268C229.011 144.723 228.191 144.921 227.379 144.822C226.568 144.724 225.823 144.336 225.288 143.734C222.946 141.154 220.762 138.497 218.606 135.797C216.449 133.097 214.372 130.336 212.348 127.524C210.324 124.712 208.37 121.814 206.541 118.779C204.545 115.627 202.861 112.299 201.511 108.838C201.155 107.88 201.102 106.841 201.361 105.854L201.476 105.424C202.227 102.526 203.005 99.6623 203.871 96.8245C204.738 93.9867 205.639 91.1747 206.523 88.3799C207.407 85.5851 208.415 82.7989 209.422 80.0385C210.43 77.2781 211.446 74.5263 212.586 71.7745C213.201 70.1688 214.445 68.8664 216.047 68.1536C217.648 67.4407 219.475 67.376 221.125 67.9735C222.775 68.5711 224.114 69.782 224.847 71.3398C225.579 72.8977 225.646 74.6749 225.032 76.2805L225.014 76.3321Z" fill="#FFCECE"/>
<path d="M225.014 76.3326C224.059 79.0242 222.999 81.7416 222.009 84.4504L218.951 92.5597L215.901 100.652C214.92 103.352 213.912 106.035 212.967 108.709L212.922 105.27C213.845 108.16 215 110.975 216.378 113.688C217.793 116.595 219.313 119.536 220.904 122.46C222.495 125.384 224.112 128.316 225.748 131.248L230.68 140.071C231.076 140.767 231.194 141.581 231.01 142.356C230.825 143.132 230.352 143.813 229.682 144.268C229.011 144.724 228.191 144.921 227.379 144.823C226.568 144.724 225.823 144.337 225.288 143.735C222.946 141.155 220.762 138.498 218.606 135.797C216.449 133.097 214.372 130.337 212.348 127.525C210.324 124.713 208.37 121.815 206.541 118.779C204.545 115.628 202.861 112.299 201.511 108.838C201.155 107.881 201.102 106.841 201.361 105.854L201.476 105.424C202.227 102.526 203.005 99.6627 203.871 96.8249C204.738 93.9871 205.639 91.1752 206.523 88.3804C207.407 85.5856 208.415 82.7994 209.422 80.0389C210.43 77.2785 211.446 74.5267 212.586 71.7749C213.201 70.1693 214.445 68.8669 216.047 68.154C217.648 67.4412 219.475 67.3765 221.125 67.974C222.775 68.5716 224.114 69.7825 224.847 71.3403C225.579 72.8982 225.646 74.6754 225.032 76.281L225.014 76.3326Z" fill="#FFCECE"/>
<path d="M220.391 63.1751C210.889 66.4772 205.692 84.536 205.692 84.536L220.833 97.6586C220.833 97.6586 227.073 93.3073 228.346 84.0888C229.319 76.9771 230.043 59.7869 220.391 63.1751Z" fill="url(#paint9_linear_1_1083)"/>
<path d="M227.772 136.012L235.568 140.114L228.099 147.475C228.099 147.475 221.496 142.926 223.414 139.125L227.772 136.012Z" fill="#FFCECE"/>
<path d="M238.272 148.679L235.205 150.829C234.613 151.243 233.89 151.439 233.163 151.383C232.436 151.326 231.753 151.02 231.237 150.519L228.099 147.475L235.568 140.114L238.935 144.456C239.181 144.775 239.358 145.137 239.457 145.523C239.557 145.909 239.576 146.31 239.515 146.703C239.453 147.096 239.311 147.473 239.098 147.812C238.885 148.152 238.604 148.446 238.272 148.679Z" fill="#FFCECE"/>
<path d="M231.378 58.334C231.785 60.2516 233.588 66.6582 242.48 67.0194C239.413 67.9911 238.688 73.6753 238.688 73.6753C238.688 73.6753 229.539 68.0685 228.647 61.0514C228.912 59.2025 231.378 58.334 231.378 58.334Z" fill="white"/>
<path d="M244.079 54.9802C244.477 56.8549 247.474 59.9937 247.049 65.6091C250.134 64.6889 254.032 67.2258 254.032 67.2258C253.122 62.9135 250.977 58.9396 247.845 55.7628C246.663 55.2378 245.378 54.9707 244.079 54.9802Z" fill="white"/>
<defs>
<linearGradient id="paint0_linear_1_1083" x1="112.845" y1="220.505" x2="166.925" y2="220.505" gradientUnits="userSpaceOnUse">
<stop stop-color="#EF8431"/>
<stop offset="1" stop-color="#E71A86"/>
</linearGradient>
<linearGradient id="paint1_linear_1_1083" x1="144.668" y1="236.067" x2="187.465" y2="236.067" gradientUnits="userSpaceOnUse">
<stop stop-color="#EF8431"/>
<stop offset="1" stop-color="#E71A86"/>
</linearGradient>
<linearGradient id="paint2_linear_1_1083" x1="144.668" y1="236.067" x2="187.465" y2="236.067" gradientUnits="userSpaceOnUse">
<stop stop-color="#EF8431"/>
<stop offset="1" stop-color="#E71A86"/>
</linearGradient>
<linearGradient id="paint3_linear_1_1083" x1="320.656" y1="309.524" x2="325.783" y2="309.524" gradientUnits="userSpaceOnUse">
<stop stop-color="#EF8431"/>
<stop offset="1" stop-color="#E71A86"/>
</linearGradient>
<linearGradient id="paint4_linear_1_1083" x1="320.688" y1="308.844" x2="323.334" y2="308.844" gradientUnits="userSpaceOnUse">
<stop stop-color="#EF8431"/>
<stop offset="1" stop-color="#E71A86"/>
</linearGradient>
<linearGradient id="paint5_linear_1_1083" x1="245.481" y1="320.672" x2="250.329" y2="320.672" gradientUnits="userSpaceOnUse">
<stop stop-color="#EF8431"/>
<stop offset="1" stop-color="#E71A86"/>
</linearGradient>
<linearGradient id="paint6_linear_1_1083" x1="245.282" y1="320.117" x2="247.606" y2="320.117" gradientUnits="userSpaceOnUse">
<stop stop-color="#EF8431"/>
<stop offset="1" stop-color="#E71A86"/>
</linearGradient>
<linearGradient id="paint7_linear_1_1083" x1="249.385" y1="67.6044" x2="275.935" y2="67.6044" gradientUnits="userSpaceOnUse">
<stop stop-color="#EF8431"/>
<stop offset="1" stop-color="#E71A86"/>
</linearGradient>
<linearGradient id="paint8_linear_1_1083" x1="213.012" y1="99.6983" x2="281.088" y2="99.6983" gradientUnits="userSpaceOnUse">
<stop stop-color="#EF8431"/>
<stop offset="1" stop-color="#E71A86"/>
</linearGradient>
<linearGradient id="paint9_linear_1_1083" x1="205.692" y1="80.1982" x2="228.883" y2="80.1982" gradientUnits="userSpaceOnUse">
<stop stop-color="#EF8431"/>
<stop offset="1" stop-color="#E71A86"/>
</linearGradient>
</defs>
</svg>
