<svg width="321" height="765" viewBox="0 0 321 765" fill="none" xmlns="http://www.w3.org/2000/svg">
<path d="M159 38.0542V727.526" stroke="#707070" stroke-width="2" stroke-miterlimit="10"/>
<path d="M159 53.0542C167.284 53.0542 174 46.3385 174 38.0542C174 29.7699 167.284 23.0542 159 23.0542C150.716 23.0542 144 29.7699 144 38.0542C144 46.3385 150.716 53.0542 159 53.0542Z" fill="white" stroke="#707070" stroke-width="2" stroke-miterlimit="10"/>
<path d="M159 46.8739C163.871 46.8739 167.82 42.925 167.82 38.0539C167.82 33.1827 163.871 29.2339 159 29.2339C154.129 29.2339 150.18 33.1827 150.18 38.0539C150.18 42.925 154.129 46.8739 159 46.8739Z" fill="url(#paint0_linear_8_2)"/>
<path d="M159 742.526C167.284 742.526 174 735.81 174 727.526C174 719.242 167.284 712.526 159 712.526C150.716 712.526 144 719.242 144 727.526C144 735.81 150.716 742.526 159 742.526Z" fill="white" stroke="#707070" stroke-width="2" stroke-miterlimit="10"/>
<path d="M159 736.346C163.871 736.346 167.82 732.397 167.82 727.526C167.82 722.655 163.871 718.706 159 718.706C154.129 718.706 150.18 722.655 150.18 727.526C150.18 732.397 154.129 736.346 159 736.346Z" fill="url(#paint1_linear_8_2)"/>
<path d="M159 538.441C167.284 538.441 174 531.725 174 523.441C174 515.157 167.284 508.441 159 508.441C150.716 508.441 144 515.157 144 523.441C144 531.725 150.716 538.441 159 538.441Z" fill="white" stroke="#707070" stroke-width="2" stroke-miterlimit="10"/>
<path d="M159 532.261C163.871 532.261 167.82 528.312 167.82 523.441C167.82 518.57 163.871 514.621 159 514.621C154.129 514.621 150.18 518.57 150.18 523.441C150.18 528.312 154.129 532.261 159 532.261Z" fill="url(#paint2_linear_8_2)"/>
<path d="M159 294.506C167.284 294.506 174 287.79 174 279.506C174 271.222 167.284 264.506 159 264.506C150.716 264.506 144 271.222 144 279.506C144 287.79 150.716 294.506 159 294.506Z" fill="white" stroke="#707070" stroke-width="2" stroke-miterlimit="10"/>
<path d="M159 288.326C163.871 288.326 167.82 284.377 167.82 279.506C167.82 274.635 163.871 270.686 159 270.686C154.129 270.686 150.18 274.635 150.18 279.506C150.18 284.377 154.129 288.326 159 288.326Z" fill="url(#paint3_linear_8_2)"/>
<g opacity="0.5">
<path opacity="0.5" d="M8.49994 65.3379C3.80794 59.0152 1.46191 49.8695 1.46191 37.9009C1.46191 26.1369 3.82496 17.093 8.55096 10.769C13.277 4.44504 20.06 1.2832 28.9 1.2832C37.7386 1.2832 44.5216 4.44504 49.249 10.769C53.9763 17.093 56.3393 26.1369 56.338 37.9009C56.338 49.8702 53.9919 59.0159 49.2999 65.3379C44.6079 71.6599 37.808 74.8225 28.9 74.8252C19.9886 74.8252 13.1886 71.6626 8.49994 65.3379ZM35.9379 55.3379C37.3659 51.8046 38.08 45.991 38.08 37.897C38.08 29.941 37.3659 24.2117 35.9379 20.709C34.5099 17.2063 32.164 15.4554 28.9 15.4561C25.6333 15.4561 23.2873 17.207 21.8619 20.709C20.4366 24.211 19.7226 29.9403 19.7199 37.897C19.7199 45.9903 20.4339 51.8039 21.8619 55.3379C23.2899 58.8719 25.636 60.6404 28.9 60.6431C32.1613 60.6457 34.506 58.8785 35.934 55.3418L35.9379 55.3379Z" stroke="#707070" stroke-miterlimit="10"/>
<path opacity="0.5" d="M103.355 59.0151H118.755V73.9072H69.1848V59.0151H84.5848V22.397L72.4468 29.332L65.7148 15.8691L90.0928 1.99707H103.353L103.355 59.0151Z" stroke="#707070" stroke-miterlimit="10"/>
</g>
<g opacity="0.5">
<path opacity="0.5" d="M8.49994 550.828C3.80794 544.505 1.46191 535.359 1.46191 523.39C1.46191 511.627 3.82496 502.583 8.55096 496.259C13.277 489.935 20.06 486.773 28.9 486.774C37.7386 486.774 44.5216 489.937 49.249 496.261C53.9763 502.586 56.3393 511.629 56.338 523.392C56.338 535.361 53.9919 544.507 49.2999 550.83C44.6079 557.153 37.808 560.315 28.9 560.316C19.9886 560.315 13.1886 557.152 8.49994 550.828ZM35.9379 540.828C37.3659 537.295 38.08 531.481 38.08 523.386C38.08 515.43 37.3659 509.701 35.9379 506.199C34.5099 502.697 32.164 500.946 28.9 500.946C25.6333 500.946 23.2873 502.697 21.8619 506.199C20.4366 509.701 19.7226 515.43 19.7199 523.386C19.7199 531.479 20.4339 537.293 21.8619 540.828C23.2899 544.363 25.636 546.131 28.9 546.133C32.1613 546.135 34.506 544.369 35.934 540.832L35.9379 540.828Z" stroke="#707070" stroke-miterlimit="10"/>
<path opacity="0.5" d="M112.484 528.694C114.815 531.923 116.016 535.831 115.901 539.812C115.998 542.731 115.363 545.628 114.053 548.238C112.742 550.849 110.8 553.089 108.401 554.756C103.401 558.393 96.584 560.212 87.95 560.213C82.9785 560.23 78.0309 559.526 73.262 558.121C69.187 557.039 65.3713 555.149 62.042 552.562L67.856 539.303C74.2467 543.587 80.6386 545.729 87.032 545.728C91.112 545.728 94.019 545.116 95.753 543.892C97.487 542.668 98.3537 540.628 98.353 537.772C98.353 535.12 97.503 533.216 95.803 532.06C94.103 530.904 91.315 530.326 87.439 530.326H76.325V515.843H85.607C89.3463 515.843 92.0664 515.299 93.767 514.211C94.6164 513.65 95.3005 512.872 95.7488 511.957C96.1971 511.043 96.3932 510.026 96.317 509.011C96.3781 507.917 96.1943 506.822 95.7792 505.807C95.364 504.792 94.7278 503.883 93.917 503.145C91.9873 501.643 89.5744 500.9 87.134 501.055C84.0347 501.099 80.9652 501.667 78.056 502.737C74.7942 503.892 71.7056 505.488 68.876 507.48L63.062 494.221C66.4232 491.655 70.2512 489.767 74.333 488.661C78.9486 487.274 83.7424 486.569 88.562 486.57C93.1522 486.475 97.7143 487.308 101.975 489.018C105.546 490.439 108.641 492.844 110.9 495.954C113.024 499.001 114.131 502.641 114.062 506.354C114.148 509.874 113.132 513.334 111.155 516.248C109.131 519.102 106.257 521.244 102.944 522.368C106.747 523.339 110.109 525.569 112.484 528.694V528.694Z" stroke="#707070" stroke-miterlimit="10"/>
</g>
<g opacity="0.5">
<path opacity="0.5" d="M209.137 306.892C204.445 300.569 202.099 291.423 202.099 279.455C202.099 267.691 204.462 258.647 209.188 252.323C213.914 245.999 220.697 242.837 229.537 242.837C238.375 242.837 245.158 245.999 249.886 252.323C254.614 258.647 256.977 267.691 256.975 279.455C256.975 291.424 254.629 300.569 249.937 306.892C245.245 313.215 238.445 316.377 229.537 316.379C220.627 316.376 213.827 313.213 209.137 306.892ZM236.575 296.892C238.002 293.359 238.716 287.545 238.716 279.451C238.716 271.495 238.002 265.766 236.575 262.263C235.148 258.761 232.802 257.01 229.537 257.01C226.27 257.01 223.924 258.761 222.498 262.263C221.072 265.765 220.358 271.495 220.357 279.451C220.357 287.544 221.071 293.357 222.498 296.892C223.925 300.427 226.272 302.195 229.537 302.197C232.8 302.2 235.146 300.433 236.575 296.896V296.892Z" stroke="#707070" stroke-miterlimit="10"/>
<path opacity="0.5" d="M316.848 300.569V315.461H266.154V301.589L289.614 277.211C294.102 272.518 296.346 268.2 296.346 264.257C296.346 259.498 293.524 257.118 287.88 257.117C284.865 257.172 281.881 257.741 279.057 258.8C275.708 260.014 272.509 261.605 269.52 263.543L263.705 250.283C267.037 247.73 270.829 245.843 274.874 244.723C279.42 243.337 284.147 242.632 288.9 242.633C293.561 242.538 298.193 243.389 302.517 245.133C306.146 246.577 309.28 249.039 311.544 252.221C313.68 255.378 314.785 259.12 314.705 262.931C314.753 266.863 313.898 270.754 312.205 274.304C309.958 278.535 307.087 282.403 303.689 285.78L289.204 300.57L316.848 300.569Z" stroke="#707070" stroke-miterlimit="10"/>
</g>
<g opacity="0.5">
<path opacity="0.5" d="M209.188 754.811C204.496 748.488 202.15 739.342 202.15 727.373C202.15 715.61 204.513 706.566 209.239 700.241C213.965 693.917 220.748 690.754 229.588 690.755C238.427 690.755 245.21 693.917 249.937 700.241C254.664 706.565 257.027 715.609 257.026 727.374C257.026 739.343 254.68 748.489 249.988 754.812C245.296 761.135 238.496 764.297 229.588 764.298C220.679 764.297 213.879 761.135 209.188 754.811ZM236.626 744.811C238.054 741.278 238.768 735.464 238.768 727.369C238.768 719.413 238.054 713.684 236.626 710.182C235.198 706.68 232.852 704.929 229.588 704.929C226.321 704.929 223.975 706.68 222.55 710.182C221.125 713.684 220.411 719.415 220.408 727.374C220.408 735.467 221.122 741.281 222.55 744.816C223.978 748.351 226.324 750.118 229.588 750.116C232.852 750.118 235.198 748.351 236.626 744.815V744.811Z" stroke="#707070" stroke-miterlimit="10"/>
<path opacity="0.5" d="M319.857 736.961V751.241H310.473V763.374H292.215V751.236H263.247V737.374L295.479 691.474H310.473V736.966L319.857 736.961ZM279.975 736.961H292.215V719.315L279.975 736.961Z" stroke="#707070" stroke-miterlimit="10"/>
</g>
<defs>
<linearGradient id="paint0_linear_8_2" x1="150.18" y1="38.0539" x2="167.82" y2="38.0539" gradientUnits="userSpaceOnUse">
<stop stop-color="#EF8431"/>
<stop offset="1" stop-color="#E71A86"/>
</linearGradient>
<linearGradient id="paint1_linear_8_2" x1="150.18" y1="727.526" x2="167.82" y2="727.526" gradientUnits="userSpaceOnUse">
<stop stop-color="#EF8431"/>
<stop offset="1" stop-color="#E71A86"/>
</linearGradient>
<linearGradient id="paint2_linear_8_2" x1="150.18" y1="523.441" x2="167.82" y2="523.441" gradientUnits="userSpaceOnUse">
<stop stop-color="#EF8431"/>
<stop offset="1" stop-color="#E71A86"/>
</linearGradient>
<linearGradient id="paint3_linear_8_2" x1="150.18" y1="279.506" x2="167.82" y2="279.506" gradientUnits="userSpaceOnUse">
<stop stop-color="#EF8431"/>
<stop offset="1" stop-color="#E71A86"/>
</linearGradient>
</defs>
</svg>
