<svg width="18" height="17" viewBox="0 0 18 17" fill="none" xmlns="http://www.w3.org/2000/svg">
<path d="M4.02996 6.04492H0.219666V16.8459H4.02996V6.04492Z" fill="url(#paint0_linear_0_681)"/>
<path d="M16.5371 7.03058C16.1336 6.61985 15.6405 6.29638 15.0919 6.08283C14.5433 5.86928 13.9522 5.77091 13.3592 5.79376C12.9122 5.78911 12.4668 5.84598 12.0372 5.96271C11.674 6.05987 11.3333 6.22078 11.033 6.43683C10.798 6.60708 10.5797 6.79673 10.3805 7.00373C10.2152 7.18505 10.0647 7.37759 9.93029 7.58039V6.04474H6.13165L6.14331 6.56769C6.15178 6.91702 6.15567 7.99243 6.15496 9.79377C6.15425 11.5951 6.14648 13.9455 6.13165 16.8455H9.93029V10.8187C9.91915 10.5197 9.96213 10.2212 10.0574 9.93585C10.2138 9.57139 10.4661 9.25049 10.7904 9.00373C11.1368 8.74674 11.5683 8.61359 12.0086 8.62775C12.2906 8.60797 12.5732 8.6573 12.8291 8.77082C13.085 8.88434 13.3056 9.05816 13.4694 9.2757C13.8111 9.81599 13.9738 10.4404 13.9366 11.0687V16.8455H17.7352V10.6546C17.8339 9.34724 17.406 8.05287 16.5371 7.03058Z" fill="url(#paint1_linear_0_681)"/>
<path d="M2.14772 0.845545C1.57651 0.822111 1.01853 1.01248 0.594784 1.37484C0.400767 1.5446 0.247388 1.75155 0.144903 1.98178C0.0424186 2.212 -0.0067972 2.46017 0.000529897 2.7098C-0.00593193 2.95698 0.042035 3.20271 0.141412 3.43148C0.240788 3.66025 0.389408 3.86669 0.577845 4.03842C0.780972 4.21943 1.02062 4.36025 1.2825 4.45199C1.54438 4.54373 1.82313 4.58469 2.10217 4.5726H2.12441C2.40957 4.58498 2.69453 4.54411 2.96299 4.45248C3.23145 4.36085 3.47816 4.22009 3.689 4.03842C3.88182 3.86956 4.03378 3.66377 4.13451 3.43441C4.23524 3.20506 4.28236 2.95792 4.27266 2.7098C4.27634 2.4611 4.22597 2.21432 4.12467 1.98471C4.02337 1.75509 3.87329 1.54756 3.6837 1.37484C3.47782 1.19464 3.23594 1.05503 2.97219 0.964197C2.70844 0.873362 2.42814 0.832826 2.14772 0.845545Z" fill="url(#paint2_linear_0_681)"/>
<defs>
<linearGradient id="paint0_linear_0_681" x1="0.219666" y1="11.4454" x2="4.02996" y2="11.4454" gradientUnits="userSpaceOnUse">
<stop stop-color="#EF8431"/>
<stop offset="1" stop-color="#E71A86"/>
</linearGradient>
<linearGradient id="paint1_linear_0_681" x1="6.13165" y1="11.318" x2="17.7491" y2="11.318" gradientUnits="userSpaceOnUse">
<stop stop-color="#EF8431"/>
<stop offset="1" stop-color="#E71A86"/>
</linearGradient>
<linearGradient id="paint2_linear_0_681" x1="-0.000183105" y1="2.70901" x2="4.27391" y2="2.70901" gradientUnits="userSpaceOnUse">
<stop stop-color="#EF8431"/>
<stop offset="1" stop-color="#E71A86"/>
</linearGradient>
</defs>
</svg>
