<svg width="106" height="115" viewBox="0 0 106 115" fill="none" xmlns="http://www.w3.org/2000/svg">
<path d="M84.4801 44.5516C84.4793 38.6811 83.0602 32.9122 80.3622 27.8117C77.6643 22.7112 73.7804 18.455 69.0925 15.4617C64.4047 12.4683 59.0743 10.8405 53.6256 10.7389C48.1768 10.6374 42.7974 12.0658 38.0163 14.8827C33.2351 17.6997 29.2169 21.8084 26.3568 26.8053C23.4967 31.8023 21.8932 37.5152 21.704 43.3821C21.5148 49.249 22.7463 55.0676 25.2776 60.2663C27.8088 65.465 31.5526 69.8645 36.1407 73.0321C37.5698 73.9866 38.7524 75.314 39.5792 76.8911C40.4061 78.4683 40.8505 80.2445 40.8713 82.0556V89.6487C40.8713 91.1438 41.4227 92.5777 42.4041 93.6349C43.3855 94.6921 44.7165 95.286 46.1044 95.286H60.0586C60.7459 95.2861 61.4264 95.1401 62.0614 94.8569C62.6964 94.5736 63.2733 94.1584 63.7593 93.6349C64.2453 93.1114 64.6307 92.4903 64.8937 91.8063C65.1566 91.1223 65.2919 90.389 65.2917 89.6487V82.2121C65.3137 80.3575 65.768 78.5382 66.613 76.9221C67.458 75.306 68.6665 73.9451 70.1275 72.9636C74.5339 69.8978 78.1565 65.6908 80.6639 60.7274C83.1712 55.764 84.4833 50.2023 84.4801 44.5516Z" fill="url(#paint0_linear_1_521)"/>
<path d="M44.3604 106.561C44.3604 108.056 44.9117 109.49 45.8931 110.547C46.8745 111.604 48.2055 112.198 49.5934 112.198H56.5705C57.9584 112.198 59.2895 111.604 60.2709 110.547C61.2523 109.49 61.8037 108.056 61.8037 106.561V95.2861H44.3604V106.561Z" fill="#EBEBEB"/>
<path d="M95.2824 24.6729L100.764 20.2449L94.4845 11.2253L89.0002 15.6566C88.448 16.1019 87.7858 16.3608 87.0971 16.4009C86.4084 16.4409 85.7241 16.2598 85.1307 15.8811C84.5373 15.5024 84.0614 14.943 83.7631 14.2731C83.4648 13.6032 83.3575 12.8533 83.4548 12.1178L84.423 4.81003L74.0619 3.21533L73.0938 10.5231C72.9962 11.2588 72.6983 11.947 72.2377 12.5004C71.7772 13.0538 71.1747 13.4477 70.5063 13.6323C69.838 13.8169 69.1339 13.7836 68.483 13.5372C67.8321 13.2908 67.2636 12.8421 66.8494 12.2477L62.738 6.34003L54.3648 13.1037L58.4762 19.0119C58.89 19.6064 59.1309 20.3197 59.1683 21.0616C59.2058 21.8036 59.0381 22.5412 58.6866 23.1805C58.3351 23.8199 57.8155 24.3323 57.1935 24.6536C56.5715 24.9749 55.875 25.0904 55.1921 24.9854L48.4084 23.9425L46.9272 35.1048L53.712 36.1466C54.3952 36.2517 55.0341 36.5726 55.5479 37.0689C56.0617 37.5651 56.4274 38.2144 56.5986 38.9345C56.7699 39.6547 56.7391 40.4135 56.5101 41.1148C56.281 41.816 55.8641 42.4282 55.312 42.8742L49.8297 47.3044L56.1088 56.3241L61.5921 51.8955C62.1441 51.4493 62.8065 51.189 63.4957 51.1485C64.1848 51.108 64.8696 51.2889 65.4634 51.6677C66.0572 52.0466 66.5333 52.6069 66.8315 53.2774C67.1296 53.9478 67.2365 54.6985 67.1385 55.4344L66.1619 62.7394L76.5229 64.3352L77.4995 57.0252C77.5971 56.2893 77.8951 55.6008 78.3558 55.0473C78.8165 54.4938 79.4192 54.1 80.0877 53.9155C80.7562 53.731 81.4605 53.7644 82.1115 54.0111C82.7625 54.2578 83.3309 54.7069 83.745 55.3017L87.8574 61.2083L96.2306 54.4435L92.116 48.5375C91.7021 47.9429 91.4611 47.2294 91.4235 46.4872C91.3859 45.745 91.5535 45.0074 91.905 44.3678C92.2565 43.7281 92.7762 43.2156 93.3983 42.8941C94.0204 42.5727 94.717 42.4569 95.4001 42.5618L102.184 43.6069L103.665 32.4457L96.8813 31.4006C96.1986 31.2953 95.5601 30.9743 95.0466 30.4783C94.5332 29.9823 94.1677 29.3335 93.9963 28.6138C93.825 27.8941 93.8555 27.1356 94.0841 26.4346C94.3126 25.7336 94.7289 25.1214 95.2803 24.6751L95.2824 24.6729ZM75.2993 46.9251C72.8843 46.9251 70.5236 46.1537 68.5156 44.7084C66.5077 43.2631 64.9427 41.2086 64.0185 38.8051C63.0944 36.4017 62.8525 33.7575 63.3237 31.206C63.7948 28.6545 64.9577 26.3106 66.6654 24.4711C68.373 22.6316 70.5486 21.379 72.9172 20.8714C75.2857 20.3639 77.7408 20.6246 79.9719 21.6201C82.203 22.6157 84.11 24.3014 85.4517 26.4645C86.7934 28.6275 87.5095 31.1702 87.5095 33.7717C87.5095 35.499 87.1936 37.2093 86.58 38.8051C85.9664 40.4009 85.067 41.8514 83.9332 43.0728C82.7994 44.2941 81.4533 45.2627 79.9719 45.9237C78.4905 46.5848 76.9027 46.9251 75.2993 46.9251Z" fill="#BCBEC0"/>
<path d="M36.1407 73.0323C34.6144 71.9733 33.1761 70.7743 31.8422 69.4476C31.432 71.1454 30.5881 72.6851 29.4062 73.8922C28.2243 75.0992 26.7519 75.9246 25.1562 76.2753C23.5605 76.6261 21.9054 76.4879 20.379 75.8761C18.8527 75.2644 17.5162 74.204 16.5213 72.815C15.5265 71.426 14.9132 69.7639 14.7511 68.0182C14.5891 66.2725 14.8848 64.5131 15.6046 62.9394C16.3244 61.3657 17.4394 60.041 18.8231 59.1158C20.2068 58.1905 21.8036 57.7018 23.4322 57.7052C23.6993 57.7052 23.9579 57.7649 24.2102 57.7898C22.5568 53.6036 21.7048 49.1011 21.705 44.5518H19.4848L18.279 50.7282C18.2199 51.031 18.0922 51.3134 17.9074 51.5504C17.7225 51.7873 17.4862 51.9718 17.2195 52.0867C16.9527 52.2017 16.6637 52.2438 16.3782 52.2095C16.0926 52.1752 15.8193 52.0653 15.5826 51.8899L10.7626 48.3107L5.53058 53.948L8.84412 59.139C9.00688 59.3941 9.10871 59.6879 9.14056 59.9955C9.17242 60.3031 9.13332 60.6149 9.02674 60.9024C8.92016 61.1898 8.74939 61.444 8.52957 61.6433C8.30975 61.8426 8.04767 61.9807 7.76658 62.0447L2.0415 63.3425V70.8581L7.7729 72.157C8.05406 72.2207 8.31625 72.3582 8.53621 72.5573C8.75618 72.7565 8.92711 73.0115 9.03381 73.2988C9.14052 73.5862 9.1797 73.8975 9.14789 74.2051C9.11609 74.5127 9.01427 74.8066 8.85148 75.0616L5.53058 80.2543L10.7626 85.8916L15.5826 82.3207C15.7711 82.1805 15.9834 82.0816 16.2073 82.0299C16.4313 81.9781 16.6625 81.9743 16.8878 82.0188C17.1131 82.0633 17.3281 82.1552 17.5205 82.2892C17.7128 82.4232 17.8788 82.5965 18.0089 82.7996C18.141 83.0041 18.2336 83.2352 18.2811 83.4791L19.4848 89.6456H26.4619L27.6656 83.4692C27.7243 83.1657 27.8518 82.8827 28.0367 82.6453C28.2217 82.4078 28.4584 82.2233 28.7256 82.1084C28.9928 81.9934 29.2823 81.9513 29.5682 81.9862C29.8541 82.0211 30.1276 82.1321 30.3641 82.3085L35.1841 85.8878L40.659 79.9889C40.375 78.5633 39.8295 77.2135 39.0543 76.0182C38.2791 74.823 37.2899 73.8066 36.1449 73.029L36.1407 73.0323Z" fill="#BCBEC0"/>
<path d="M103.918 30.583L97.1318 29.5402C96.7901 29.4879 96.4705 29.3276 96.2134 29.0796C95.9563 28.8316 95.7733 28.5068 95.6875 28.1467C95.6017 27.7866 95.617 27.4076 95.7315 27.0569C95.846 26.7062 96.0546 26.3996 96.3307 26.1766L101.815 21.7458C102.185 21.4467 102.43 21.0016 102.495 20.5083C102.56 20.0151 102.441 19.5137 102.164 19.1149L95.884 10.0964C95.7467 9.8988 95.5745 9.73232 95.3774 9.60647C95.1803 9.48062 94.9621 9.39754 94.7353 9.36262C94.5085 9.3277 94.2775 9.34165 94.0556 9.40299C93.8336 9.46432 93.6251 9.57215 93.4419 9.72038L87.9597 14.1506C87.6839 14.3762 87.352 14.5082 87.0063 14.5299C86.6605 14.5516 86.3167 14.4618 86.0184 14.2722C85.7202 14.0826 85.4811 13.8014 85.3316 13.4649C85.1821 13.1284 85.1291 12.7519 85.1791 12.3828L86.1494 5.07287C86.182 4.8286 86.1695 4.57986 86.1128 4.34077C86.0561 4.10168 85.9562 3.87694 85.8189 3.67945C85.6815 3.48195 85.5094 3.31536 85.3123 3.18954C85.1152 3.06372 84.8971 2.98122 84.6703 2.94624L74.3166 1.35265C74.0899 1.31741 73.8589 1.33096 73.6369 1.39191C73.4149 1.45287 73.2062 1.56034 73.0227 1.7082C72.8393 1.85606 72.6847 2.04116 72.5678 2.2534C72.4509 2.46564 72.3739 2.70085 72.3413 2.94514L71.3721 10.2551C71.3232 10.623 71.1741 10.967 70.9437 11.2437C70.7133 11.5204 70.4119 11.7172 70.0776 11.8094C69.7434 11.9016 69.3912 11.8852 69.0657 11.7619C68.7402 11.6385 68.4559 11.4139 68.2488 11.1166L64.1374 5.20889C63.8597 4.81037 63.4465 4.54674 62.9886 4.47624C62.5307 4.40574 62.0656 4.53411 61.6954 4.83289L56.4539 9.07011C54.0826 8.79859 51.6914 8.79859 49.3201 9.07011C41.7834 9.99772 34.7702 13.6827 29.4514 19.5092C24.1326 25.3356 20.8302 32.9508 20.0955 41.084C20.0493 41.6151 20.0314 42.1438 20.0072 42.6693H19.4816C19.0801 42.6701 18.6912 42.8202 18.3804 43.094C18.0696 43.3677 17.856 43.7485 17.7754 44.1722L16.5707 50.3475L11.7423 46.76C11.4064 46.5103 10.9998 46.3955 10.5934 46.4354C10.1869 46.4753 9.80634 46.6673 9.5179 46.9784L4.28481 52.6157C3.99701 52.9263 3.81925 53.3359 3.78238 53.773C3.74551 54.2101 3.85186 54.6474 4.08297 55.0088L7.3965 60.201L1.663 61.4999C1.27458 61.5924 0.927242 61.825 0.678645 62.1595C0.430049 62.4941 0.295169 62.9104 0.296395 63.339V70.8546C0.296197 71.2859 0.433659 71.7039 0.685735 72.039C0.937812 72.374 1.28917 72.6057 1.68089 72.6948L7.41541 73.9926L4.10084 79.1847C3.86965 79.5463 3.76327 79.9838 3.80014 80.4211C3.837 80.8584 4.01479 81.2681 4.30268 81.579L9.53578 87.2162C9.82446 87.5269 10.2051 87.7184 10.6115 87.7581C11.0179 87.7979 11.4243 87.6832 11.7602 87.4336L16.5802 83.8538L17.7849 90.0313C17.8654 90.455 18.0791 90.8358 18.3899 91.1095C18.7007 91.3833 19.0896 91.5333 19.4911 91.5342H26.4682C26.8685 91.5344 27.2568 91.3861 27.5678 91.1145C27.8788 90.843 28.0937 90.4643 28.1764 90.0424L29.3812 83.8654L34.2011 87.4358C34.5368 87.6848 34.9428 87.7995 35.3488 87.7598C35.7547 87.7201 36.1349 87.5286 36.4235 87.2185L39.1325 84.2901V89.6453C39.1361 90.9588 39.4602 92.2479 40.0724 93.3838C40.6846 94.5197 41.5634 95.4624 42.6206 96.117V106.557C42.6206 107.544 42.801 108.522 43.1517 109.434C43.5024 110.346 44.0165 111.174 44.6645 111.872C45.3125 112.57 46.0817 113.123 46.9284 113.501C47.775 113.879 48.6824 114.073 49.5987 114.073H56.5758C58.4263 114.073 60.2009 113.281 61.5094 111.872C62.8178 110.462 63.5529 108.55 63.5529 106.557V96.1181C64.61 95.4634 65.4889 94.5208 66.1012 93.3849C66.7136 92.249 67.038 90.96 67.042 89.6464V82.2093C67.0651 80.6693 67.4466 79.1606 68.1515 77.8206C68.8564 76.4806 69.8622 75.3521 71.0767 74.5394C72.5242 73.5274 73.897 72.3968 75.1828 71.1571L72.8554 68.3575C71.7036 69.4677 70.4734 70.4801 69.176 71.3849C67.4714 72.537 66.0628 74.1321 65.0796 76.0235C64.0963 77.9149 63.5699 80.0416 63.5487 82.2093V89.6464C63.5487 90.6433 63.1811 91.599 62.5268 92.3039C61.8725 93.0088 60.985 93.4048 60.0596 93.4048H46.1044C45.179 93.4048 44.2915 93.0088 43.6372 92.3039C42.9829 91.599 42.6153 90.6433 42.6153 89.6464V82.0534C42.5955 79.9271 42.0782 77.8402 41.1111 75.9865C40.144 74.1327 38.7584 72.5717 37.0826 71.4479C31.6602 67.777 27.4909 62.3091 25.2018 55.8659C22.9128 49.4227 22.6278 42.3531 24.3897 35.7204C26.1517 29.0878 29.8652 23.2507 34.9718 19.0873C40.0784 14.9239 46.3019 12.659 52.7062 12.6338C52.6805 12.7009 52.658 12.7695 52.6389 12.839C52.6067 13.0832 52.6195 13.3317 52.6767 13.5705C52.7339 13.8094 52.8343 14.0338 52.9722 14.2308L57.0836 20.1362C57.2953 20.4314 57.4188 20.7894 57.4375 21.1619C57.4563 21.5345 57.3695 21.9043 57.1887 22.2225C57.0149 22.5436 56.7561 22.8014 56.4453 22.9629C56.1346 23.1243 55.7861 23.1817 55.4447 23.1282L48.6589 22.0842C48.201 22.0137 47.7358 22.1421 47.3656 22.4409C46.9954 22.7397 46.7505 23.1841 46.6847 23.6773L45.2035 34.8363C45.138 35.3295 45.257 35.8309 45.5344 36.2297C45.8117 36.6285 46.2247 36.8925 46.6826 36.9635L53.4683 38.0074C53.81 38.0598 54.1294 38.2199 54.3864 38.468C54.6434 38.7161 54.8262 39.0408 54.9119 39.4008C54.9975 39.7609 54.9821 40.1406 54.8675 40.4912C54.753 40.8419 54.5444 41.1475 54.2683 41.3704L48.7861 45.7995C48.4161 46.0986 48.1716 46.5437 48.1061 47.037C48.0407 47.5303 48.1597 48.0317 48.4371 48.4304L54.7172 57.4501C54.8546 57.6475 55.0268 57.8137 55.2239 57.9394C55.421 58.0652 55.6392 58.1484 55.8659 58.1833C56.0927 58.2182 56.3237 58.2042 56.5456 58.1429C56.7675 58.0817 56.976 57.9742 57.1592 57.8261L62.6425 53.397C62.9184 53.1744 63.2494 53.045 63.5936 53.0249C63.9378 53.0048 64.2797 53.095 64.5764 53.2842C64.873 53.4733 65.1109 53.7529 65.2601 54.0876C65.4093 54.4223 65.4631 54.7971 65.4147 55.1648L64.4465 62.4747C64.4139 62.719 64.4264 62.9677 64.4831 63.2068C64.5398 63.4459 64.6397 63.6706 64.777 63.8681C64.9144 64.0656 65.0865 64.2322 65.2836 64.358C65.4807 64.4838 65.6988 64.5663 65.9256 64.6013L76.2877 66.1971C76.3689 66.2083 76.4507 66.2136 76.5326 66.2137C76.9529 66.2145 77.3592 66.0522 77.6769 65.7559C77.9947 65.4596 78.2024 65.0494 78.262 64.6013L79.2301 57.2925C79.2786 56.9244 79.4274 56.5802 79.6576 56.3033C79.8878 56.0263 80.1891 55.8294 80.5234 55.7371C80.8577 55.6447 81.2099 55.6607 81.5355 55.7841C81.8611 55.9074 82.1453 56.1324 82.3523 56.4299L86.4659 62.3354C86.6033 62.5328 86.7754 62.699 86.9725 62.8247C87.1696 62.9505 87.3878 63.0336 87.6146 63.0686C87.8413 63.1035 88.0723 63.0894 88.2942 63.0282C88.5161 62.9669 88.7246 62.8594 88.9079 62.7114L97.28 55.9461C97.4633 55.7981 97.6177 55.6126 97.7345 55.4003C97.8512 55.188 97.928 54.9529 97.9604 54.7086C97.9928 54.4643 97.9802 54.2155 97.9234 53.9765C97.8665 53.7374 97.7665 53.5131 97.629 53.3157L93.5176 47.4097C93.3068 47.114 93.184 46.7568 93.1652 46.3845C93.1464 46.0123 93.2326 45.6425 93.4125 45.324C93.5824 44.9991 93.8406 44.7378 94.1524 44.5759C94.4643 44.4139 94.8147 44.3591 95.1565 44.4183L101.942 45.4611C102.4 45.5316 102.865 45.4032 103.236 45.1045C103.606 44.8057 103.851 44.3607 103.917 43.8675L105.396 32.7063C105.461 32.2129 105.342 31.7119 105.065 31.3129C104.787 30.9139 104.374 30.6498 103.917 30.5786L103.918 30.583ZM23.0359 59.5844C24.6401 63.3099 26.8306 66.7084 29.5105 69.6293C29.0785 70.9229 28.325 72.0638 27.3321 72.9276C26.3393 73.7913 25.1452 74.3447 23.8803 74.5273C22.6154 74.7098 21.3283 74.5149 20.1593 73.9632C18.9904 73.4115 17.9846 72.5247 17.2517 71.3992C16.5188 70.2738 16.087 68.953 16.0034 67.5811C15.9198 66.2093 16.1876 64.8389 16.7776 63.6198C17.3676 62.4008 18.2571 61.3798 19.3491 60.6682C20.441 59.9566 21.6934 59.5816 22.9696 59.5844H23.0359ZM56.5706 110.318H49.5935C48.6681 110.318 47.7806 109.922 47.1263 109.217C46.472 108.512 46.1044 107.556 46.1044 106.559V104.68H60.0586V106.559C60.0589 107.053 59.9688 107.541 59.7937 107.998C59.6185 108.454 59.3616 108.868 59.0377 109.217C58.7138 109.567 58.3292 109.843 57.9058 110.032C57.4825 110.221 57.0288 110.319 56.5706 110.319V110.318ZM60.0586 97.1643V100.922H46.1044V97.1643H60.0586ZM38.7131 79.4236L34.9717 83.4474L31.3491 80.7567C30.8759 80.4055 30.3294 80.1854 29.7583 80.1164C29.1872 80.0474 28.6091 80.1312 28.0754 80.3608C27.5417 80.5904 27.0689 80.9586 26.699 81.4324C26.3291 81.9062 26.0736 82.4711 25.9552 83.0769L25.0416 87.7686H20.8955L19.9809 83.0841C19.8629 82.4782 19.6077 81.9125 19.2379 81.4385C18.8682 80.9645 18.3954 80.5966 17.8617 80.3669C17.328 80.1373 16.7498 80.0533 16.1787 80.1225C15.6075 80.1917 15.0611 80.4118 14.5881 80.7634L10.9634 83.4474L7.78441 80.0307L10.2811 76.1297C10.6074 75.62 10.8118 75.0314 10.8761 74.4161C10.9403 73.8008 10.8625 73.1775 10.6494 72.6024C10.4364 72.0274 10.0948 71.518 9.6549 71.1194C9.21505 70.7209 8.6906 70.4453 8.12816 70.3177L3.78021 69.3318V64.8629L8.12816 63.8753C8.68916 63.7473 9.2122 63.4724 9.65097 63.0746C10.0898 62.6769 10.4307 62.1691 10.6437 61.5955C10.8567 61.022 10.9352 60.4003 10.8721 59.7863C10.809 59.1723 10.6064 58.5844 10.2822 58.0749L7.78441 54.1628L10.9634 50.7473L14.5891 53.4379C15.0625 53.7884 15.6089 54.0075 16.1798 54.076C16.7507 54.1445 17.3284 54.0603 17.8618 53.8305C18.3952 53.6007 18.8676 53.2325 19.2373 52.7589C19.607 52.2853 19.8624 51.7205 19.9809 51.115L20.2868 49.5524C20.5659 51.7171 21.0287 53.8497 21.6692 55.9234C19.8756 56.1537 18.1679 56.8804 16.7122 58.0323C15.2564 59.1842 14.1022 60.7226 13.3617 62.4974C12.6213 64.2722 12.3199 66.2232 12.4867 68.1606C12.6536 70.0981 13.2831 71.9558 14.3141 73.5535C15.345 75.1513 16.7422 76.4344 18.3699 77.2782C19.9975 78.1219 21.8002 78.4977 23.6025 78.3686C25.4048 78.2395 27.1454 77.6101 28.6551 76.5416C30.1647 75.4732 31.3919 74.0019 32.2174 72.2712C33.1699 73.1104 34.1652 73.8914 35.1988 74.6107C36.8466 75.7329 38.0871 77.4303 38.7131 79.4192V79.4236ZM100.702 41.4771L95.6432 40.6992C94.6186 40.5412 93.5736 40.7143 92.6402 41.1962C91.7069 41.6782 90.9272 42.4475 90.3999 43.4069C89.8726 44.3663 89.6212 45.4725 89.6777 46.5858C89.7341 47.6991 90.0959 48.7695 90.7171 49.6613L93.7825 54.0638L88.2004 58.5748L85.1339 54.1728C84.5128 53.2811 83.6602 52.6079 82.6839 52.238C81.7076 51.8682 80.6515 51.8182 79.649 52.0948C78.6464 52.3714 77.7425 52.962 77.0514 53.7918C76.3603 54.6216 75.9131 55.6537 75.7663 56.7572L75.0598 62.2143L68.1542 61.1498L68.8764 55.7006C69.023 54.5967 68.8624 53.4708 68.4149 52.4653C67.9674 51.4598 67.2532 50.6198 66.3625 50.0517C65.4718 49.4835 64.4447 49.2124 63.4111 49.2731C62.3775 49.3338 61.3839 49.7237 60.5558 50.3928L56.4696 53.6939L52.2825 47.6817L56.3677 44.3773C57.1955 43.7085 57.8207 42.7902 58.1641 41.7387C58.5076 40.6871 58.5539 39.5496 58.2973 38.4697C58.0406 37.3898 57.4925 36.4156 56.7223 35.6712C55.952 34.9268 54.9941 34.4453 53.9698 34.2872L48.9112 33.5092L49.8983 26.0704L54.9569 26.8484C55.9816 27.0063 57.0267 26.8334 57.9601 26.3513C58.8936 25.8693 59.6733 25.0996 60.2007 24.1401C60.7281 23.1806 60.9796 22.0746 60.9232 20.9612C60.8669 19.8478 60.5052 18.7772 59.8841 17.8852L56.8092 13.4787L62.3913 8.96948L65.4578 13.3715C66.0784 14.2638 66.9308 14.9376 67.9071 15.3079C68.8834 15.6782 69.9397 15.7282 70.9424 15.4517C71.9451 15.1751 72.8492 14.5842 73.5402 13.7541C74.2312 12.924 74.6781 11.8919 74.8244 10.7881L75.5466 5.33884L82.4522 6.39994L81.731 11.8492C81.5844 12.9529 81.745 14.0785 82.1924 15.0839C82.6398 16.0894 83.354 16.9295 84.2446 17.4976C85.1352 18.0656 86.1622 18.3364 87.1957 18.2756C88.2292 18.2147 89.2227 17.825 90.0506 17.1558L94.1378 13.8548L98.3239 19.868L94.2377 23.1713C93.4094 23.8399 92.7838 24.7583 92.44 25.81C92.0962 26.8617 92.0497 27.9994 92.3064 29.0796C92.5631 30.1597 93.1115 31.1336 93.8821 31.878C94.6527 32.6224 95.6109 33.1039 96.6356 33.2615L101.694 34.0395L100.702 41.4771Z" fill="#231F20"/>
<path d="M75.2972 18.7412C72.537 18.741 69.8387 19.6225 67.5436 21.2743C65.2485 22.926 63.4597 25.2738 62.4033 28.0207C61.3469 30.7677 61.0705 33.7907 61.6089 36.707C62.1474 39.6232 63.4765 42.302 65.4282 44.4045C67.38 46.507 69.8667 47.9384 72.5738 48.5184C75.281 49.0985 78.087 48.801 80.637 47.663C83.1871 46.5251 85.3666 44.5982 86.8999 42.1258C88.4333 39.6535 89.2516 36.7464 89.2514 33.773C89.2514 29.7863 87.7812 25.9633 85.1643 23.1443C82.5474 20.3253 78.998 18.7412 75.2972 18.7412ZM75.2972 45.0476C73.2274 45.0474 71.2042 44.3859 69.4834 43.1471C67.7626 41.9083 66.4214 40.1481 65.6295 38.0882C64.8375 36.0283 64.6304 33.7612 65.0342 31.5745C65.438 29.3878 66.4347 27.3794 67.8982 25.8029C69.3617 24.2263 71.2264 23.1525 73.2563 22.7174C75.2862 22.2824 77.3903 22.5057 79.3026 23.3589C81.2148 24.212 82.8492 25.6567 83.9992 27.5104C85.1492 29.3641 85.7631 31.5435 85.7633 33.773C85.7628 36.7628 84.6599 39.6304 82.6971 41.7443C80.7344 43.8582 78.0726 45.0454 75.2972 45.0454V45.0476Z" fill="#231F20"/>
<path d="M51.338 84.0127H54.8249V89.6489H51.3369L51.338 84.0127Z" fill="#231F20"/>
<path d="M45.4517 65.5585C41.8419 64.0397 38.6945 61.4712 36.3598 58.1391C34.0252 54.807 32.5951 50.8419 32.2288 46.6859C31.8625 42.53 32.5744 38.346 34.2852 34.6002C35.996 30.8544 38.6386 27.6935 41.9185 25.47L40.0536 22.2905C36.2291 24.886 33.1483 28.5737 31.1544 32.9436C29.1604 37.3135 28.3315 42.1936 28.7598 47.0409C29.1882 51.8883 30.8571 56.5129 33.5807 60.399C36.3042 64.2851 39.9756 67.2806 44.186 69.052C46.2892 69.921 48.0983 71.4567 49.3746 73.4562C50.6508 75.4558 51.3342 77.8248 51.3345 80.2514H54.8246C54.8274 77.0679 53.9327 73.9589 52.259 71.3351C50.5853 68.7114 48.2115 66.6971 45.4517 65.5585Z" fill="#231F20"/>
<path d="M86.2236 70.8579H98.4339V74.6168H86.2236V70.8579Z" fill="#231F20"/>
<path d="M83.3638 83.5774L85.5966 80.6899L96.0628 90.0889L93.83 92.9758L83.3638 83.5774Z" fill="#231F20"/>
<path d="M75.7583 85.8916H79.2474V99.0445H75.7583V85.8916Z" fill="#231F20"/>
<path d="M2.07275 33.3341L16.027 29.5752L16.8732 33.2197L2.919 36.978L2.07275 33.3341Z" fill="#231F20"/>
<path d="M4.97021 14.1378L6.99701 11.0806L19.2072 20.4795L17.1804 23.5373L4.97021 14.1378Z" fill="#231F20"/>
<path d="M19.917 1.79779L23.2967 0.867188L26.8636 15.899L23.4839 16.8296L19.917 1.79779Z" fill="#231F20"/>
<defs>
<linearGradient id="paint0_linear_1_521" x1="21.6851" y1="53.0099" x2="84.4801" y2="53.0099" gradientUnits="userSpaceOnUse">
<stop stop-color="#EF8431"/>
<stop offset="1" stop-color="#E71A86"/>
</linearGradient>
</defs>
</svg>
