<svg width="118" height="115" viewBox="0 0 118 115" fill="none" xmlns="http://www.w3.org/2000/svg">
<path d="M58.854 0.83252C47.2138 0.83252 35.8349 4.15359 26.1565 10.3753C16.478 16.5969 8.93458 25.4396 4.48006 35.7859C0.0255436 46.1321 -1.14002 57.5168 1.13087 68.5003C3.40177 79.4839 9.0071 89.5731 17.238 97.4918C25.4689 105.41 35.9556 110.803 47.3722 112.988C58.7887 115.173 70.6223 114.051 81.3764 109.766C92.1306 105.48 101.322 98.2231 107.789 88.9118C114.256 79.6004 117.708 68.6528 117.708 57.4541C117.708 42.4372 111.507 28.0351 100.47 17.4165C89.4328 6.79785 74.4631 0.83252 58.854 0.83252ZM58.854 92.8427C51.5789 92.8427 44.4671 90.7671 38.4181 86.8786C32.369 82.99 27.6544 77.4633 24.8703 70.9969C22.0862 64.5305 21.3578 57.4148 22.7771 50.5501C24.1964 43.6854 27.6996 37.3798 32.8439 32.4306C37.9882 27.4814 44.5425 24.1112 51.6779 22.7458C58.8132 21.3803 66.2092 22.0811 72.9305 24.7596C79.6519 27.4381 85.3967 31.974 89.4385 37.7936C93.4804 43.6132 95.6377 50.455 95.6377 57.4541C95.6377 66.8398 91.7623 75.8411 84.864 82.4777C77.9657 89.1143 68.6097 92.8427 58.854 92.8427Z" fill="url(#paint0_linear_1_602)"/>
<path d="M99.8566 57.4542C99.8566 49.6523 97.4518 42.0258 92.9464 35.5388C88.441 29.0517 82.0373 23.9958 74.5451 21.0102C67.0529 18.0245 58.8087 17.2431 50.8551 18.7652C42.9014 20.2873 35.5955 24.0441 29.8612 29.5609C24.1269 35.0777 20.2218 42.1063 18.6397 49.7583C17.0576 57.4103 17.8695 65.3422 20.9729 72.5502C24.0763 79.7582 29.3317 85.9188 36.0745 90.2533C42.8173 94.5878 50.7447 96.9014 58.8542 96.9014C69.7287 96.9014 80.1578 92.7454 87.8473 85.3476C95.5367 77.9498 99.8566 67.9163 99.8566 57.4542ZM22.0705 57.4542C22.0705 50.4551 24.2279 43.6133 28.2697 37.7937C32.3116 31.9741 38.0564 27.4382 44.7777 24.7597C51.499 22.0812 58.895 21.3804 66.0304 22.7459C73.1657 24.1113 79.7199 27.4815 84.8642 32.4307C90.0085 37.3799 93.5119 43.6855 94.9312 50.5502C96.3505 57.4149 95.622 64.5306 92.8379 70.997C90.0539 77.4634 85.3392 82.9902 79.2902 86.8787C73.2411 90.7672 66.1294 92.8428 58.8542 92.8428C49.0986 92.8428 39.7424 89.1144 32.8441 82.4778C25.9458 75.8412 22.0705 66.8399 22.0705 57.4542ZM117.708 57.4542C117.708 72.4712 111.508 86.8733 100.47 97.4919C89.433 108.111 74.4633 114.076 58.8542 114.076C58.0067 114.076 57.1639 114.056 56.3258 114.022C71.4641 113.37 85.7578 107.126 96.2307 96.589C106.704 86.0523 112.548 72.0352 112.548 57.4565C112.548 42.8778 106.704 28.8611 96.2307 18.3245C85.7578 7.78787 71.4641 1.5436 56.3258 0.891785C57.1639 0.857812 58.0067 0.835938 58.8542 0.835938C74.4627 0.835937 89.4318 6.80089 100.469 17.4188C111.506 28.0367 117.707 42.4378 117.708 57.4542Z" fill="#231F20"/>
<path d="M73.3526 48.5308L49.2329 71.0661C48.5824 71.6702 47.7113 72.0044 46.8072 71.9967C45.9031 71.989 45.0383 71.6402 44.399 71.0252C43.7597 70.4101 43.397 69.5781 43.3891 68.7083C43.3811 67.8385 43.7284 67.0002 44.3563 66.3743L68.4758 43.839C69.1264 43.2349 69.9974 42.9008 70.9016 42.9084C71.8057 42.9161 72.6706 43.2649 73.3099 43.88C73.9492 44.495 74.3119 45.327 74.3199 46.1968C74.3278 47.0666 73.9805 47.9049 73.3526 48.5308ZM49.6591 50.8205C50.5684 50.8203 51.4572 50.5608 52.2131 50.0746C52.9691 49.5884 53.5581 48.8973 53.9059 48.089C54.2537 47.2807 54.3446 46.3918 54.1671 45.5338C53.9896 44.6759 53.5516 43.8875 52.9086 43.269C52.2655 42.6505 51.4462 42.2297 50.5544 42.0591C49.6626 41.8885 48.7383 41.9759 47.8982 42.3107C47.0582 42.6455 46.3402 43.2123 45.835 43.9397C45.3299 44.6671 45.0603 45.5227 45.0603 46.3975C45.0618 47.5704 45.5469 48.6946 46.4091 49.5239C47.2712 50.3531 48.44 50.8193 49.6591 50.8205ZM68.051 64.0918C67.1416 64.0918 66.2527 64.3511 65.4966 64.8372C64.7406 65.3232 64.1513 66.014 63.8033 66.8222C63.4553 67.6305 63.3642 68.5199 63.5416 69.3779C63.7191 70.236 64.1569 71.0236 64.7999 71.6423C65.4429 72.2609 66.2621 72.6825 67.1539 72.8532C68.0458 73.0239 68.9703 72.9364 69.8104 72.6016C70.6505 72.2668 71.3685 71.6995 71.8737 70.9721C72.3789 70.2447 72.6486 69.3896 72.6486 68.5148C72.6474 67.3419 72.1626 66.2173 71.3007 65.3879C70.4388 64.5584 69.2701 64.0916 68.051 64.0901V64.0918Z" fill="url(#paint1_linear_1_602)"/>
<path d="M117.708 57.4544H92.1653C91.867 57.4539 91.5806 57.3419 91.3667 57.142C91.1527 56.9421 91.028 56.6702 91.0188 56.3833C90.7363 48.5462 87.3738 41.1037 81.6099 35.5589C75.846 30.014 68.1102 26.7794 59.964 26.5083C59.6659 26.4991 59.3832 26.3792 59.1756 26.1732C58.968 25.9671 58.8517 25.6915 58.8516 25.4046V0.830566C66.5808 0.830269 74.2344 2.29471 81.3753 5.14022C88.5162 7.98574 95.0047 12.1564 100.47 17.4145C105.935 22.6726 110.271 28.915 113.228 35.785C116.186 42.6551 117.708 50.0184 117.708 57.4544Z" fill="#231F20"/>
<path d="M112.65 57.4544H95.6375C95.6375 48.0688 91.762 39.0675 84.8637 32.4309C77.9654 25.7942 68.6094 22.0659 58.8538 22.0659V1.04346C73.5325 2.26161 87.2025 8.73222 97.1629 19.1768C107.123 29.6213 112.65 43.28 112.65 57.4544ZM117.694 56.3491C117.701 56.7171 117.708 57.0852 117.708 57.4544C117.708 57.0852 117.701 56.7171 117.694 56.3491Z" fill="#231F20"/>
<defs>
<linearGradient id="paint0_linear_1_602" x1="0" y1="57.4543" x2="117.708" y2="57.4543" gradientUnits="userSpaceOnUse">
<stop stop-color="#EF8431"/>
<stop offset="1" stop-color="#E71A86"/>
</linearGradient>
<linearGradient id="paint1_linear_1_602" x1="43.3889" y1="57.4562" x2="74.32" y2="57.4562" gradientUnits="userSpaceOnUse">
<stop stop-color="#EF8431"/>
<stop offset="1" stop-color="#E71A86"/>
</linearGradient>
</defs>
</svg>
