<svg width="43" height="41" viewBox="0 0 43 41" fill="none" xmlns="http://www.w3.org/2000/svg">
<path d="M21.3794 40.722C33.1637 40.722 42.7168 31.7037 42.7168 20.579C42.7168 9.45436 33.1637 0.436035 21.3794 0.436035C9.59508 0.436035 0.0419922 9.45436 0.0419922 20.579C0.0419922 31.7037 9.59508 40.722 21.3794 40.722Z" fill="white"/>
<path d="M25.0671 13.734C24.9247 13.6089 24.7366 13.5407 24.5421 13.5435C24.3476 13.5463 24.1618 13.6196 24.0235 13.7486C23.8851 13.8777 23.8049 14.0524 23.7996 14.2359C23.7943 14.4195 23.8644 14.598 23.9951 14.734L29.4293 19.8629H11.4976C11.3989 19.8625 11.301 19.8806 11.2097 19.9161C11.1185 19.9516 11.0356 20.004 10.9659 20.0699C10.8961 20.1358 10.8409 20.2142 10.8034 20.3004C10.766 20.3866 10.747 20.4787 10.7476 20.5719C10.7467 20.6656 10.7654 20.7584 10.8027 20.8453C10.8399 20.9322 10.895 21.0114 10.9647 21.0782C11.0344 21.145 11.1173 21.198 11.2087 21.2345C11.3001 21.271 11.3983 21.2904 11.4976 21.2911H29.4293L23.9951 26.4107C23.8562 26.5463 23.7785 26.7279 23.7785 26.9166C23.7785 27.1052 23.8562 27.2864 23.9951 27.422C24.0651 27.4892 24.1484 27.5427 24.2404 27.5792C24.3325 27.6156 24.4313 27.6344 24.5311 27.6344C24.6309 27.6344 24.7298 27.6156 24.8218 27.5792C24.9138 27.5427 24.9972 27.4892 25.0671 27.422L31.7873 21.0777C31.8577 21.0125 31.9138 20.9351 31.952 20.8492C31.9902 20.7633 32.0098 20.6708 32.0098 20.5777C32.0098 20.4846 31.9902 20.3926 31.952 20.3067C31.9138 20.2209 31.8577 20.1429 31.7873 20.0777L25.0671 13.734Z" fill="url(#paint0_linear_23_2)"/>
<defs>
<linearGradient id="paint0_linear_23_2" x1="10.7476" y1="20.5889" x2="32.0098" y2="20.5889" gradientUnits="userSpaceOnUse">
<stop stop-color="#EF8431"/>
<stop offset="1" stop-color="#E71A86"/>
</linearGradient>
</defs>
</svg>
