<svg width="888" height="87" viewBox="0 0 888 87" fill="none" xmlns="http://www.w3.org/2000/svg">
<path d="M25.5341 18.8432H0.427844V1.11416H72.7719V18.8432H47.6657V85H25.5341V18.8432ZM81.7954 1.11416H141.408V18.0103H103.094V33.9546H139.028V50.7317H103.094V68.1038H141.408V85H81.7954V1.11416ZM181.972 86.0709C175.706 86.0709 169.518 85.238 163.41 83.5722C157.302 81.9063 152.345 79.6852 148.537 76.9089L155.319 61.4406C159.365 63.979 163.688 65.9224 168.289 67.2709C172.89 68.6195 177.53 69.2937 182.21 69.2937C186.97 69.2937 190.579 68.6591 193.038 67.3899C195.576 66.0414 196.846 64.1773 196.846 61.7975C196.846 59.6558 195.695 57.9106 193.395 56.5621C191.174 55.2136 186.89 53.8651 180.544 52.5165C172.691 50.8507 166.544 48.8676 162.101 46.5672C157.659 44.2668 154.526 41.5697 152.701 38.4761C150.956 35.3824 150.084 31.5748 150.084 27.0533C150.084 21.8972 151.512 17.2964 154.367 13.2508C157.302 9.12595 161.388 5.9133 166.623 3.61289C171.938 1.23315 178.006 0.0432768 184.828 0.0432768C190.857 0.0432768 196.687 0.915849 202.319 2.66099C208.03 4.32681 212.473 6.50824 215.646 9.20528L208.982 24.6736C201.367 19.4382 193.355 16.8204 184.947 16.8204C180.901 16.8204 177.649 17.6137 175.19 19.2002C172.731 20.7074 171.501 22.7301 171.501 25.2685C171.501 26.7757 171.938 28.0052 172.81 28.9571C173.683 29.909 175.309 30.8609 177.689 31.8128C180.068 32.6854 183.598 33.5976 188.279 34.5495C195.894 36.2153 201.883 38.2381 206.246 40.6178C210.608 42.9183 213.702 45.6153 215.527 48.709C217.351 51.8026 218.263 55.4912 218.263 59.7748C218.263 68.0245 215.09 74.4895 208.744 79.1696C202.398 83.7705 193.474 86.0709 181.972 86.0709ZM247.821 18.8432H222.715V1.11416H295.059V18.8432H269.953V85H247.821V18.8432ZM304.083 1.11416H325.976V85H304.083V1.11416ZM425.869 1.11416V85H406.831V40.9748L390.648 71.0785H376.608L360.545 41.6887L360.426 85H341.388V1.11416H358.641L383.866 48.8279L408.972 1.11416H425.869ZM481.173 86.0709C472.606 86.0709 465.15 84.3257 458.804 80.8355C452.537 77.2658 447.698 72.2684 444.287 65.8431C440.877 59.3385 439.171 51.7233 439.171 42.9976C439.171 34.2719 440.877 26.6964 444.287 20.2711C447.698 13.7664 452.537 8.76899 458.804 5.27871C465.15 1.78842 472.606 0.0432768 481.173 0.0432768C489.741 0.0432768 497.157 1.78842 503.424 5.27871C509.77 8.76899 514.609 13.7664 517.94 20.2711C521.351 26.6964 523.057 34.2719 523.057 42.9976C523.057 51.7233 521.351 59.3385 517.94 65.8431C514.529 72.2684 509.651 77.2658 503.305 80.8355C497.038 84.3257 489.661 86.0709 481.173 86.0709ZM481.173 69.2937C487.519 69.2937 492.477 67.0726 496.047 62.6304C499.616 58.1089 501.401 51.5647 501.401 42.9976C501.401 34.4305 499.577 27.9259 495.928 23.4837C492.358 19.0415 487.44 16.8204 481.173 16.8204C474.827 16.8204 469.87 19.0415 466.3 23.4837C462.73 27.8466 460.946 34.3512 460.946 42.9976C460.946 51.644 462.73 58.1883 466.3 62.6304C469.87 67.0726 474.827 69.2937 481.173 69.2937ZM610.857 1.11416V85H594.675L556.361 37.0482V85H536.014V1.11416H551.959L590.391 49.0659V1.11416H610.857ZM682.468 67.6279H645.344L637.848 85H615.835L654.982 1.11416H672.354L711.62 85H689.964L682.468 67.6279ZM675.448 51.2077L663.906 24.3166L652.364 51.2077H675.448ZM716.586 1.11416H738.48V85H716.586V1.11416ZM753.654 1.11416H775.547V67.2709H811.243V85H753.654V1.11416ZM851.158 86.0709C844.891 86.0709 838.704 85.238 832.596 83.5722C826.488 81.9063 821.53 79.6852 817.723 76.9089L824.505 61.4406C828.55 63.979 832.874 65.9224 837.474 67.2709C842.075 68.6195 846.716 69.2937 851.396 69.2937C856.155 69.2937 859.765 68.6591 862.224 67.3899C864.762 66.0414 866.031 64.1773 866.031 61.7975C866.031 59.6558 864.881 57.9106 862.581 56.5621C860.36 55.2136 856.076 53.8651 849.73 52.5165C841.877 50.8507 835.729 48.8676 831.287 46.5672C826.845 44.2668 823.712 41.5697 821.887 38.4761C820.142 35.3824 819.269 31.5748 819.269 27.0533C819.269 21.8972 820.697 17.2964 823.553 13.2508C826.488 9.12595 830.573 5.9133 835.809 3.61289C841.123 1.23315 847.192 0.0432768 854.014 0.0432768C860.042 0.0432768 865.873 0.915849 871.505 2.66099C877.216 4.32681 881.658 6.50824 884.831 9.20528L878.168 24.6736C870.553 19.4382 862.541 16.8204 854.133 16.8204C850.087 16.8204 846.835 17.6137 844.376 19.2002C841.917 20.7074 840.687 22.7301 840.687 25.2685C840.687 26.7757 841.123 28.0052 841.996 28.9571C842.868 29.909 844.495 30.8609 846.874 31.8128C849.254 32.6854 852.784 33.5976 857.464 34.5495C865.079 36.2153 871.068 38.2381 875.431 40.6178C879.794 42.9183 882.888 45.6153 884.712 48.709C886.537 51.8026 887.449 55.4912 887.449 59.7748C887.449 68.0245 884.276 74.4895 877.93 79.1696C871.584 83.7705 862.66 86.0709 851.158 86.0709Z" fill="#F1F2F2"/>
</svg>
