<svg width="22" height="17" viewBox="0 0 22 17" fill="none" xmlns="http://www.w3.org/2000/svg">
<path d="M21.277 2.73992C20.4923 3.06285 19.6625 3.2779 18.8131 3.3781C19.7085 2.87662 20.3779 2.08251 20.6944 1.14617C19.8562 1.61563 18.939 1.94564 17.9826 2.12273C17.396 1.532 16.6348 1.12169 15.7979 0.944505C14.961 0.767325 14.087 0.831882 13.2893 1.12956C12.4917 1.42725 11.8073 1.94441 11.3249 2.61394C10.8426 3.28347 10.5846 4.07426 10.5845 4.88396C10.5815 5.19349 10.6149 5.50227 10.6841 5.80486C8.98285 5.72577 7.31846 5.30891 5.79961 4.58122C4.28075 3.85354 2.9416 2.83174 1.86964 1.5822C1.31779 2.47066 1.14643 3.52419 1.3906 4.528C1.63477 5.53181 2.27603 6.40992 3.18318 6.9821C2.50604 6.96364 1.84347 6.79218 1.25101 6.4821V6.52702C1.25248 7.45916 1.59401 8.36232 2.21813 9.08464C2.84225 9.80696 3.71087 10.3042 4.67784 10.4928C4.3118 10.5839 3.93457 10.6289 3.55605 10.6261C3.28442 10.6312 3.01302 10.6077 2.74674 10.5568C3.02291 11.3582 3.55545 12.0589 4.27103 12.5627C4.98662 13.0664 5.85004 13.3485 6.74241 13.3698C5.22885 14.4873 3.36214 15.0938 1.44063 15.092C1.09861 15.0942 0.756815 15.0753 0.417358 15.0358C2.25626 16.1466 4.3778 16.7702 6.55967 16.841C8.74154 16.9118 10.9034 16.4272 12.8187 15.4382C14.7341 14.4491 16.3323 12.992 17.446 11.2194C18.5598 9.4468 19.1479 7.42391 19.1489 5.36296C19.1489 5.18396 19.1425 5.01199 19.1341 4.84099C19.9776 4.26927 20.7037 3.55725 21.277 2.73992Z" fill="url(#paint0_linear_0_678)"/>
<defs>
<linearGradient id="paint0_linear_0_678" x1="0.417358" y1="8.84722" x2="21.277" y2="8.84722" gradientUnits="userSpaceOnUse">
<stop stop-color="#EF8431"/>
<stop offset="1" stop-color="#E71A86"/>
</linearGradient>
</defs>
</svg>
