<svg width="834" height="87" viewBox="0 0 834 87" fill="none" xmlns="http://www.w3.org/2000/svg">
<mask id="path-1-inside-1_0_479" fill="white">
<path d="M130.838 1.11416L100.853 85H83.4808L65.7517 34.6685L47.7847 85H30.2936L0.427844 1.11416H22.6784L40.0505 54.3014L58.8505 1.11416H73.9618L91.9288 55.2533L110.134 1.11416H130.838ZM217.114 1.11416V85H195.697V51.0887H161.428V85H140.011V1.11416H161.428V33.7166H195.697V1.11416H217.114ZM288.788 67.6279H251.664L244.168 85H222.155L261.302 1.11416H278.674L317.94 85H296.284L288.788 67.6279ZM281.768 51.2077L270.226 24.3166L258.684 51.2077H281.768ZM330.903 18.8432H305.797V1.11416H378.141V18.8432H353.035V85H330.903V18.8432ZM545.433 1.11416L515.448 85H498.076L480.347 34.6685L462.38 85H444.889L415.023 1.11416H437.274L454.646 54.3014L473.446 1.11416H488.557L506.524 55.2533L524.729 1.11416H545.433ZM554.606 1.11416H614.219V18.0103H575.905V33.9546H611.839V50.7317H575.905V68.1038H614.219V85H554.606V1.11416ZM659.649 1.11416H693.799C703.08 1.11416 711.052 2.77998 717.715 6.11161C724.458 9.44325 729.614 14.2821 733.183 20.628C736.753 26.8947 738.538 34.3512 738.538 42.9976C738.538 51.7233 736.753 59.2591 733.183 65.6051C729.693 71.8718 724.577 76.6709 717.834 80.0025C711.171 83.3342 703.159 85 693.799 85H659.649V1.11416ZM692.252 67.3899C700.501 67.3899 706.649 65.3671 710.695 61.3216C714.74 57.276 716.763 51.168 716.763 42.9976C716.763 34.8271 714.74 28.7588 710.695 24.7926C706.649 20.747 700.501 18.7242 692.252 18.7242H681.543V67.3899H692.252ZM791.539 86.0709C782.972 86.0709 775.515 84.3257 769.169 80.8355C762.903 77.2658 758.064 72.2684 754.653 65.8431C751.242 59.3385 749.537 51.7233 749.537 42.9976C749.537 34.2719 751.242 26.6964 754.653 20.2711C758.064 13.7664 762.903 8.76899 769.169 5.27871C775.515 1.78842 782.972 0.0432768 791.539 0.0432768C800.106 0.0432768 807.523 1.78842 813.789 5.27871C820.135 8.76899 824.974 13.7664 828.306 20.2711C831.717 26.6964 833.422 34.2719 833.422 42.9976C833.422 51.7233 831.717 59.3385 828.306 65.8431C824.895 72.2684 820.016 77.2658 813.671 80.8355C807.404 84.3257 800.027 86.0709 791.539 86.0709ZM791.539 69.2937C797.885 69.2937 802.843 67.0726 806.412 62.6304C809.982 58.1089 811.767 51.5647 811.767 42.9976C811.767 34.4305 809.942 27.9259 806.293 23.4837C802.724 19.0415 797.806 16.8204 791.539 16.8204C785.193 16.8204 780.235 19.0415 776.666 23.4837C773.096 27.8466 771.311 34.3512 771.311 42.9976C771.311 51.644 773.096 58.1883 776.666 62.6304C780.235 67.0726 785.193 69.2937 791.539 69.2937Z"/>
</mask>
<path d="M130.838 1.11416L100.853 85H83.4808L65.7517 34.6685L47.7847 85H30.2936L0.427844 1.11416H22.6784L40.0505 54.3014L58.8505 1.11416H73.9618L91.9288 55.2533L110.134 1.11416H130.838ZM217.114 1.11416V85H195.697V51.0887H161.428V85H140.011V1.11416H161.428V33.7166H195.697V1.11416H217.114ZM288.788 67.6279H251.664L244.168 85H222.155L261.302 1.11416H278.674L317.94 85H296.284L288.788 67.6279ZM281.768 51.2077L270.226 24.3166L258.684 51.2077H281.768ZM330.903 18.8432H305.797V1.11416H378.141V18.8432H353.035V85H330.903V18.8432ZM545.433 1.11416L515.448 85H498.076L480.347 34.6685L462.38 85H444.889L415.023 1.11416H437.274L454.646 54.3014L473.446 1.11416H488.557L506.524 55.2533L524.729 1.11416H545.433ZM554.606 1.11416H614.219V18.0103H575.905V33.9546H611.839V50.7317H575.905V68.1038H614.219V85H554.606V1.11416ZM659.649 1.11416H693.799C703.08 1.11416 711.052 2.77998 717.715 6.11161C724.458 9.44325 729.614 14.2821 733.183 20.628C736.753 26.8947 738.538 34.3512 738.538 42.9976C738.538 51.7233 736.753 59.2591 733.183 65.6051C729.693 71.8718 724.577 76.6709 717.834 80.0025C711.171 83.3342 703.159 85 693.799 85H659.649V1.11416ZM692.252 67.3899C700.501 67.3899 706.649 65.3671 710.695 61.3216C714.74 57.276 716.763 51.168 716.763 42.9976C716.763 34.8271 714.74 28.7588 710.695 24.7926C706.649 20.747 700.501 18.7242 692.252 18.7242H681.543V67.3899H692.252ZM791.539 86.0709C782.972 86.0709 775.515 84.3257 769.169 80.8355C762.903 77.2658 758.064 72.2684 754.653 65.8431C751.242 59.3385 749.537 51.7233 749.537 42.9976C749.537 34.2719 751.242 26.6964 754.653 20.2711C758.064 13.7664 762.903 8.76899 769.169 5.27871C775.515 1.78842 782.972 0.0432768 791.539 0.0432768C800.106 0.0432768 807.523 1.78842 813.789 5.27871C820.135 8.76899 824.974 13.7664 828.306 20.2711C831.717 26.6964 833.422 34.2719 833.422 42.9976C833.422 51.7233 831.717 59.3385 828.306 65.8431C824.895 72.2684 820.016 77.2658 813.671 80.8355C807.404 84.3257 800.027 86.0709 791.539 86.0709ZM791.539 69.2937C797.885 69.2937 802.843 67.0726 806.412 62.6304C809.982 58.1089 811.767 51.5647 811.767 42.9976C811.767 34.4305 809.942 27.9259 806.293 23.4837C802.724 19.0415 797.806 16.8204 791.539 16.8204C785.193 16.8204 780.235 19.0415 776.666 23.4837C773.096 27.8466 771.311 34.3512 771.311 42.9976C771.311 51.644 773.096 58.1883 776.666 62.6304C780.235 67.0726 785.193 69.2937 791.539 69.2937Z" fill="#F1F2F2"/>
<path d="M130.838 1.11416L211.82 30.0609L252.907 -84.8858H130.838V1.11416ZM100.853 85V171H161.441L181.835 113.947L100.853 85ZM83.4808 85L2.36592 113.572L22.5946 171H83.4808V85ZM65.7517 34.6685L146.867 6.09613L66.2921 -222.649L-15.2424 5.7557L65.7517 34.6685ZM47.7847 85V171H108.4L128.779 113.913L47.7847 85ZM30.2936 85L-50.7248 113.845L-30.3759 171H30.2936V85ZM0.427844 1.11416V-84.8858H-121.479L-80.5905 29.959L0.427844 1.11416ZM22.6784 1.11416L104.428 -25.5871L85.06 -84.8858H22.6784V1.11416ZM40.0505 54.3014L-41.6993 81.0027L36.8362 321.451L121.134 82.9618L40.0505 54.3014ZM58.8505 1.11416V-84.8858H-1.96564L-22.2333 -27.5463L58.8505 1.11416ZM73.9618 1.11416L155.584 -25.9738L136.033 -84.8858H73.9618V1.11416ZM91.9288 55.2533L10.3063 82.3412L91.3922 326.673L173.444 82.6637L91.9288 55.2533ZM110.134 1.11416V-84.8858H48.3206L28.619 -26.2963L110.134 1.11416ZM49.8556 -27.8326L19.8709 56.0532L181.835 113.947L211.82 30.0609L49.8556 -27.8326ZM100.853 -1H83.4808V171H100.853V-1ZM164.596 56.4276L146.867 6.09613L-15.3631 63.2409L2.36592 113.572L164.596 56.4276ZM-15.2424 5.7557L-33.2095 56.0872L128.779 113.913L146.746 63.5813L-15.2424 5.7557ZM47.7847 -1H30.2936V171H47.7847V-1ZM111.312 56.1552L81.4462 -27.7307L-80.5905 29.959L-50.7248 113.845L111.312 56.1552ZM0.427844 87.1142H22.6784V-84.8858H0.427844V87.1142ZM-59.0715 27.8155L-41.6993 81.0027L121.8 27.6001L104.428 -25.5871L-59.0715 27.8155ZM121.134 82.9618L139.934 29.7746L-22.2333 -27.5463L-41.0332 25.6409L121.134 82.9618ZM58.8505 87.1142H73.9618V-84.8858H58.8505V87.1142ZM-7.66076 28.2021L10.3063 82.3412L173.551 28.1653L155.584 -25.9738L-7.66076 28.2021ZM173.444 82.6637L191.649 28.5246L28.619 -26.2963L10.414 27.8428L173.444 82.6637ZM110.134 87.1142H130.838V-84.8858H110.134V87.1142ZM217.114 1.11416H303.114V-84.8858H217.114V1.11416ZM217.114 85V171H303.114V85H217.114ZM195.697 85H109.697V171H195.697V85ZM195.697 51.0887H281.697V-34.9113H195.697V51.0887ZM161.428 51.0887V-34.9113H75.4284V51.0887H161.428ZM161.428 85V171H247.428V85H161.428ZM140.011 85H54.0108V171H140.011V85ZM140.011 1.11416V-84.8858H54.0108V1.11416H140.011ZM161.428 1.11416H247.428V-84.8858H161.428V1.11416ZM161.428 33.7166H75.4284V119.717H161.428V33.7166ZM195.697 33.7166V119.717H281.697V33.7166H195.697ZM195.697 1.11416V-84.8858H109.697V1.11416H195.697ZM131.114 1.11416V85H303.114V1.11416H131.114ZM217.114 -1H195.697V171H217.114V-1ZM281.697 85V51.0887H109.697V85H281.697ZM195.697 -34.9113H161.428V137.089H195.697V-34.9113ZM75.4284 51.0887V85H247.428V51.0887H75.4284ZM161.428 -1H140.011V171H161.428V-1ZM226.011 85V1.11416H54.0108V85H226.011ZM140.011 87.1142H161.428V-84.8858H140.011V87.1142ZM75.4284 1.11416V33.7166H247.428V1.11416H75.4284ZM161.428 119.717H195.697V-52.2834H161.428V119.717ZM281.697 33.7166V1.11416H109.697V33.7166H281.697ZM195.697 87.1142H217.114V-84.8858H195.697V87.1142ZM288.788 67.6279L367.751 33.5551L345.344 -18.3721H288.788V67.6279ZM251.664 67.6279V-18.3721H195.109L172.702 33.5551L251.664 67.6279ZM244.168 85V171H300.723L323.13 119.073L244.168 85ZM222.155 85L144.224 48.6319L87.1186 171H222.155V85ZM261.302 1.11416V-84.8858H206.532L183.37 -35.254L261.302 1.11416ZM278.674 1.11416L356.564 -35.3447L333.374 -84.8858H278.674V1.11416ZM317.94 85V171H453.151L395.829 48.5411L317.94 85ZM296.284 85L217.322 119.073L239.729 171H296.284V85ZM281.768 51.2077V137.208H412.266L360.796 17.2884L281.768 51.2077ZM270.226 24.3166L349.255 -9.60263L270.226 -193.731L191.198 -9.60263L270.226 24.3166ZM258.684 51.2077L179.656 17.2884L128.186 137.208H258.684V51.2077ZM288.788 -18.3721H251.664V153.628H288.788V-18.3721ZM172.702 33.5551L165.206 50.9272L323.13 119.073L330.627 101.701L172.702 33.5551ZM244.168 -1H222.155V171H244.168V-1ZM300.087 121.368L339.234 37.4823L183.37 -35.254L144.224 48.6319L300.087 121.368ZM261.302 87.1142H278.674V-84.8858H261.302V87.1142ZM200.785 37.573L240.051 121.459L395.829 48.5411L356.564 -35.3447L200.785 37.573ZM317.94 -1H296.284V171H317.94V-1ZM375.247 50.9272L367.751 33.5551L209.826 101.701L217.322 119.073L375.247 50.9272ZM360.796 17.2884L349.255 -9.60263L191.198 58.2359L202.74 85.1269L360.796 17.2884ZM191.198 -9.60263L179.656 17.2884L337.713 85.1269L349.255 58.2359L191.198 -9.60263ZM258.684 137.208H281.768V-34.7923H258.684V137.208ZM330.903 18.8432H416.903V-67.1568H330.903V18.8432ZM305.797 18.8432H219.797V104.843H305.797V18.8432ZM305.797 1.11416V-84.8858H219.797V1.11416H305.797ZM378.141 1.11416H464.141V-84.8858H378.141V1.11416ZM378.141 18.8432V104.843H464.141V18.8432H378.141ZM353.035 18.8432V-67.1568H267.035V18.8432H353.035ZM353.035 85V171H439.035V85H353.035ZM330.903 85H244.903V171H330.903V85ZM330.903 -67.1568H305.797V104.843H330.903V-67.1568ZM391.797 18.8432V1.11416H219.797V18.8432H391.797ZM305.797 87.1142H378.141V-84.8858H305.797V87.1142ZM292.141 1.11416V18.8432H464.141V1.11416H292.141ZM378.141 -67.1568H353.035V104.843H378.141V-67.1568ZM267.035 18.8432V85H439.035V18.8432H267.035ZM353.035 -1H330.903V171H353.035V-1ZM416.903 85V18.8432H244.903V85H416.903ZM545.433 1.11416L626.415 30.0609L667.502 -84.8858H545.433V1.11416ZM515.448 85V171H576.037L596.43 113.947L515.448 85ZM498.076 85L416.961 113.572L437.19 171H498.076V85ZM480.347 34.6685L561.462 6.09613L480.887 -222.649L399.353 5.7557L480.347 34.6685ZM462.38 85V171H522.995L543.374 113.913L462.38 85ZM444.889 85L363.871 113.845L384.219 171H444.889V85ZM415.023 1.11416V-84.8858H293.117L334.005 29.959L415.023 1.11416ZM437.274 1.11416L519.024 -25.5871L499.655 -84.8858H437.274V1.11416ZM454.646 54.3014L372.896 81.0027L451.432 321.451L535.73 82.9618L454.646 54.3014ZM473.446 1.11416V-84.8858H412.63L392.362 -27.5463L473.446 1.11416ZM488.557 1.11416L570.18 -25.9738L550.629 -84.8858H488.557V1.11416ZM506.524 55.2533L424.902 82.3412L505.988 326.673L588.039 82.6637L506.524 55.2533ZM524.729 1.11416V-84.8858H462.916L443.214 -26.2963L524.729 1.11416ZM464.451 -27.8326L434.466 56.0532L596.43 113.947L626.415 30.0609L464.451 -27.8326ZM515.448 -1H498.076V171H515.448V-1ZM579.191 56.4276L561.462 6.09613L399.232 63.2409L416.961 113.572L579.191 56.4276ZM399.353 5.7557L381.386 56.0872L543.374 113.913L561.341 63.5813L399.353 5.7557ZM462.38 -1H444.889V171H462.38V-1ZM525.907 56.1552L496.042 -27.7307L334.005 29.959L363.871 113.845L525.907 56.1552ZM415.023 87.1142H437.274V-84.8858H415.023V87.1142ZM355.524 27.8155L372.896 81.0027L536.396 27.6001L519.024 -25.5871L355.524 27.8155ZM535.73 82.9618L554.53 29.7746L392.362 -27.5463L373.562 25.6409L535.73 82.9618ZM473.446 87.1142H488.557V-84.8858H473.446V87.1142ZM406.935 28.2021L424.902 82.3412L588.147 28.1653L570.18 -25.9738L406.935 28.2021ZM588.039 82.6637L606.244 28.5246L443.214 -26.2963L425.009 27.8428L588.039 82.6637ZM524.729 87.1142H545.433V-84.8858H524.729V87.1142ZM554.606 1.11416V-84.8858H468.606V1.11416H554.606ZM614.219 1.11416H700.219V-84.8858H614.219V1.11416ZM614.219 18.0103V104.01H700.219V18.0103H614.219ZM575.905 18.0103V-67.9897H489.905V18.0103H575.905ZM575.905 33.9546H489.905V119.955H575.905V33.9546ZM611.839 33.9546H697.839V-52.0454H611.839V33.9546ZM611.839 50.7317V136.732H697.839V50.7317H611.839ZM575.905 50.7317V-35.2683H489.905V50.7317H575.905ZM575.905 68.1038H489.905V154.104H575.905V68.1038ZM614.219 68.1038H700.219V-17.8962H614.219V68.1038ZM614.219 85V171H700.219V85H614.219ZM554.606 85H468.606V171H554.606V85ZM554.606 87.1142H614.219V-84.8858H554.606V87.1142ZM528.219 1.11416V18.0103H700.219V1.11416H528.219ZM614.219 -67.9897H575.905V104.01H614.219V-67.9897ZM489.905 18.0103V33.9546H661.905V18.0103H489.905ZM575.905 119.955H611.839V-52.0454H575.905V119.955ZM525.839 33.9546V50.7317H697.839V33.9546H525.839ZM611.839 -35.2683H575.905V136.732H611.839V-35.2683ZM489.905 50.7317V68.1038H661.905V50.7317H489.905ZM575.905 154.104H614.219V-17.8962H575.905V154.104ZM528.219 68.1038V85H700.219V68.1038H528.219ZM614.219 -1H554.606V171H614.219V-1ZM640.606 85V1.11416H468.606V85H640.606ZM659.649 1.11416V-84.8858H573.649V1.11416H659.649ZM717.715 6.11161L679.255 83.0324L679.436 83.1231L679.618 83.2129L717.715 6.11161ZM733.183 20.628L658.228 62.7905L658.341 62.9926L658.456 63.1941L733.183 20.628ZM733.183 65.6051L658.228 23.4426L658.139 23.6007L658.051 23.7591L733.183 65.6051ZM717.834 80.0025L679.737 2.90125L679.555 2.9911L679.374 3.08181L717.834 80.0025ZM659.649 85H573.649V171H659.649V85ZM710.695 61.3216L649.884 0.510395V0.51041L710.695 61.3216ZM710.695 24.7926L649.884 85.6038L650.185 85.9048L650.489 86.2028L710.695 24.7926ZM681.543 18.7242V-67.2758H595.543V18.7242H681.543ZM681.543 67.3899H595.543V153.39H681.543V67.3899ZM659.649 87.1142H693.799V-84.8858H659.649V87.1142ZM693.799 87.1142C692.938 87.1142 687.106 86.958 679.255 83.0324L756.175 -70.8091C734.997 -81.398 713.221 -84.8858 693.799 -84.8858V87.1142ZM679.618 83.2129C675.883 81.3677 671.763 78.6798 667.788 74.9495C663.795 71.2021 660.605 67.0175 658.228 62.7905L808.139 -21.5344C795.788 -43.491 777.535 -60.2561 755.812 -70.9897L679.618 83.2129ZM658.456 63.1941C653.295 54.1341 652.538 46.3087 652.538 42.9976H824.538C824.538 22.3937 820.21 -0.344753 807.91 -21.938L658.456 63.1941ZM652.538 42.9976C652.538 39.882 653.245 32.301 658.228 23.4426L808.139 107.768C820.261 86.2173 824.538 63.5646 824.538 42.9976H652.538ZM658.051 23.7591C663.471 14.027 671.648 6.89805 679.737 2.90125L755.931 157.104C777.505 146.444 795.915 129.717 808.316 107.451L658.051 23.7591ZM679.374 3.08181C687.318 -0.890224 693.147 -1 693.799 -1V171C713.17 171 735.024 167.559 756.294 156.923L679.374 3.08181ZM693.799 -1H659.649V171H693.799V-1ZM745.649 85V1.11416H573.649V85H745.649ZM692.252 153.39C713.194 153.39 745.364 148.274 771.506 122.133L649.884 0.51041C667.934 -17.5399 687.809 -18.6101 692.252 -18.6101V153.39ZM771.506 122.133C797.509 96.1298 802.763 64.1412 802.763 42.9976H630.763C630.763 38.1949 631.972 18.4223 649.884 0.510395L771.506 122.133ZM802.763 42.9976C802.763 22.0063 797.57 -10.4719 770.901 -36.6177L650.489 86.2028C631.911 67.9895 630.763 47.6479 630.763 42.9976H802.763ZM771.506 -36.0186C745.364 -62.1601 713.194 -67.2758 692.252 -67.2758V104.724C687.809 104.724 667.934 103.654 649.884 85.6038L771.506 -36.0186ZM692.252 -67.2758H681.543V104.724H692.252V-67.2758ZM595.543 18.7242V67.3899H767.543V18.7242H595.543ZM681.543 153.39H692.252V-18.6101H681.543V153.39ZM769.169 80.8355L726.603 155.562L727.161 155.88L727.724 156.19L769.169 80.8355ZM754.653 65.8431L678.49 105.782L678.591 105.975L678.693 106.168L754.653 65.8431ZM754.653 20.2711L830.613 60.5956L830.715 60.4032L830.816 60.2104L754.653 20.2711ZM769.169 5.27871L727.724 -70.0758L727.524 -69.9654L727.323 -69.8539L769.169 5.27871ZM813.789 5.27871L771.943 80.4113L772.144 80.5228L772.344 80.6333L813.789 5.27871ZM828.306 20.2711L751.762 59.4764L752.05 60.0381L752.346 60.5956L828.306 20.2711ZM828.306 65.8431L904.266 106.168L904.368 105.975L904.469 105.782L828.306 65.8431ZM813.671 80.8355L855.517 155.968L855.675 155.88L855.833 155.791L813.671 80.8355ZM806.412 62.6304L873.45 116.5L873.682 116.211L873.912 115.92L806.412 62.6304ZM806.293 23.4837L739.256 77.3533L739.545 77.7139L739.839 78.0713L806.293 23.4837ZM776.666 23.4837L843.226 77.9422L843.466 77.6488L843.703 77.3533L776.666 23.4837ZM776.666 62.6304L843.703 8.76082V8.76081L776.666 62.6304ZM791.539 0.0708847C794.809 0.0708847 802.124 0.81144 810.614 5.48089L727.724 156.19C748.906 167.84 771.135 172.071 791.539 172.071V0.0708847ZM811.735 6.1084C819.766 10.6828 826.449 17.6751 830.613 25.5186L678.693 106.168C689.679 126.862 706.039 143.849 726.603 155.562L811.735 6.1084ZM830.816 25.9038C834.977 33.8386 835.536 40.4167 835.536 42.9976H663.536C663.536 63.0299 667.507 84.8384 678.49 105.782L830.816 25.9038ZM835.536 42.9976C835.536 45.5433 834.989 52.3527 830.613 60.5956L678.693 -20.0534C667.495 1.03999 663.536 23.0004 663.536 42.9976H835.536ZM830.816 60.2104C826.653 68.1499 819.735 75.5551 811.015 80.4113L727.323 -69.8539C706.071 -58.0171 689.475 -40.6171 678.49 -19.6682L830.816 60.2104ZM810.614 80.6333C802.125 85.3027 794.809 86.0433 791.539 86.0433V-85.9567C771.134 -85.9567 748.906 -81.7259 727.724 -70.0758L810.614 80.6333ZM791.539 86.0433C788.304 86.0433 780.747 85.3145 771.943 80.4113L855.636 -69.8539C834.299 -81.7377 811.908 -85.9567 791.539 -85.9567V86.0433ZM772.344 80.6333C763.499 75.7683 756.183 68.1073 751.762 59.4764L904.85 -18.9342C893.766 -40.5744 876.772 -58.2304 855.234 -70.0759L772.344 80.6333ZM752.346 60.5956C747.97 52.3528 747.422 45.5433 747.422 42.9976H919.422C919.422 23.0004 915.464 1.03997 904.266 -20.0535L752.346 60.5956ZM747.422 42.9976C747.422 40.4167 747.982 33.8385 752.143 25.9038L904.469 105.782C915.452 84.8384 919.422 63.0299 919.422 42.9976H747.422ZM752.346 25.5186C756.661 17.3896 763.519 10.3736 771.508 5.87996L855.833 155.791C876.514 144.158 893.129 127.147 904.266 106.168L752.346 25.5186ZM771.824 5.70284C780.515 0.862713 788.071 0.0708847 791.539 0.0708847V172.071C811.983 172.071 834.293 167.789 855.517 155.968L771.824 5.70284ZM791.539 155.294C820.583 155.294 851.561 143.74 873.45 116.5L739.375 8.7608C745.687 0.905403 754.298 -6.1262 764.856 -10.856C775.142 -15.464 784.612 -16.7063 791.539 -16.7063V155.294ZM873.912 115.92C894.068 90.3895 897.767 61.8625 897.767 42.9976H725.767C725.767 41.2668 725.896 25.8284 738.912 9.34106L873.912 115.92ZM897.767 42.9976C897.767 23.927 893.936 -5.30969 872.748 -31.1039L739.839 78.0713C725.949 61.1615 725.767 44.9341 725.767 42.9976H897.767ZM873.331 -30.3859C851.669 -57.3429 820.905 -69.1796 791.539 -69.1796V102.82C784.421 102.82 774.849 101.524 764.531 96.8641C753.971 92.0953 745.456 85.0691 739.256 77.3533L873.331 -30.3859ZM791.539 -69.1796C762.495 -69.1796 731.517 -57.6256 709.628 -30.3859L843.703 77.3533C837.391 85.2088 828.779 92.2404 818.222 96.9702C807.936 101.578 798.466 102.82 791.539 102.82V-69.1796ZM710.105 -30.9747C688.791 -4.92341 685.311 24.5902 685.311 42.9976H857.311C857.311 44.1122 857.401 60.6166 843.226 77.9422L710.105 -30.9747ZM685.311 42.9976C685.311 61.5665 688.856 90.6508 709.628 116.5L843.703 8.76081C857.336 25.7257 857.311 41.7215 857.311 42.9976H685.311ZM709.628 116.5C731.517 143.74 762.495 155.294 791.539 155.294V-16.7063C798.466 -16.7063 807.936 -15.464 818.222 -10.856C828.779 -6.12619 837.391 0.905415 843.703 8.76082L709.628 116.5Z" fill="#F1F2F2" mask="url(#path-1-inside-1_0_479)"/>
</svg>
